<?xml version="1.0" encoding="utf-8"?>
<!-- Generator: Adobe Illustrator 19.1.0, SVG Export Plug-In . SVG Version: 6.00 Build 0)  -->
<!DOCTYPE svg PUBLIC "-//W3C//DTD SVG 1.1//EN" "http://www.w3.org/Graphics/SVG/1.1/DTD/svg11.dtd">
<svg version="1.1" id="Layer_1" xmlns="http://www.w3.org/2000/svg" xmlns:xlink="http://www.w3.org/1999/xlink" x="0px" y="0px"
	 width="40px" height="40px" viewBox="0 0 40 40" style="enable-background:new 0 0 40 40;" xml:space="preserve">
<style type="text/css">
	.st0{fill:#7AE076;}
	.st1{fill:#F6E251;}
	.st2{fill:#4931B1;}
</style>
<g>
	<path class="st0" d="M20,11c-0.2,0-0.5,0.9-0.7,0.8l-11-10c-0.4-0.4-0.4-1-0.1-1.4c0.4-0.4,1-0.4,1.4-0.1L20,9.6l10.3-9.4
		c0.4-0.4,1.1-0.3,1.4,0.1c0.4,0.4,0.3,1.1-0.1,1.4l-11,10C20.5,11.9,20.2,11,20,11z"/>
</g>
<g>
	<path class="st1" d="M33,40H7c-3.9,0-7-3.1-7-7V17c0-3.9,3.1-7,7-7h26c3.9,0,7,3.1,7,7v16C40,36.9,36.9,40,33,40z M7,12
		c-2.8,0-5,2.2-5,5v16c0,2.8,2.2,5,5,5h26c2.8,0,5-2.2,5-5V17c0-2.8-2.2-5-5-5H7z"/>
</g>
<g>
	<path class="st2" d="M34,35H6c-0.6,0-1-0.5-1-1V16c0-0.6,0.5-1,1-1h28c0.6,0,1,0.5,1,1v18C35,34.6,34.6,35,34,35z M7,33h26V17H7V33
		z"/>
</g>
</svg>
