<svg id="e07ce740-fef1-4bae-acec-564007f0141f" data-name="Layer 1" xmlns="http://www.w3.org/2000/svg" width="40" height="40" viewBox="0 0 40 40">
  <path d="M39,40H30a1,1,0,0,1,0-2h8V14.52734L20.31152,2.4248,8.85742,21.51465a1,1,0,0,1-1.71484-1.0293l12-20A.99928.99928,0,0,1,20.56445.1748l19,13A1.00013,1.00013,0,0,1,40,14V39A.99974.99974,0,0,1,39,40Z" style="fill: #f6e251"/>
  <path d="M9,20a.99974.99974,0,0,1-1-1V5A.99974.99974,0,0,1,9,4h5a.99974.99974,0,0,1,1,1v6a1,1,0,0,1-2,0V6H10V19A.99974.99974,0,0,1,9,20Z" style="fill: #f6e251"/>
  <path d="M22,24H15a.99974.99974,0,0,1-1-1V17a.99974.99974,0,0,1,1-1h7a.99974.99974,0,0,1,1,1v6A.99974.99974,0,0,1,22,24Zm-6-2h5V18H16Z" style="fill: #7ae076"/>
  <path d="M33,24H26a.99974.99974,0,0,1-1-1V17a.99974.99974,0,0,1,1-1h7a.99974.99974,0,0,1,1,1v6A.99974.99974,0,0,1,33,24Zm-6-2h5V18H27Z" style="fill: #7ae076"/>
  <path d="M28,37a.99974.99974,0,0,1-1-1V29H22v1a1,1,0,0,1-2,0V28a.99974.99974,0,0,1,1-1h7a.99974.99974,0,0,1,1,1v8A.99974.99974,0,0,1,28,37Z" style="fill: #00e0c5"/>
  <path d="M18,35H5a.99974.99974,0,0,1-1-1V25a1.00025,1.00025,0,0,1,1.56934-.82227l13,9A1.00024,1.00024,0,0,1,18,35ZM6,33h8.79883L6,26.90869Z" style="fill: #00e0c5"/>
  <path d="M5,39a.99974.99974,0,0,1-1-1V37a1,1,0,0,1,2,0v1A.99974.99974,0,0,1,5,39Z" style="fill: #00e0c5"/>
  <path d="M9,39a.99974.99974,0,0,1-1-1V37a1,1,0,0,1,2,0v1A.99974.99974,0,0,1,9,39Z" style="fill: #00e0c5"/>
  <path d="M13,39a.99974.99974,0,0,1-1-1V37a1,1,0,0,1,2,0v1A.99974.99974,0,0,1,13,39Z" style="fill: #00e0c5"/>
  <path d="M17,39a.99974.99974,0,0,1-1-1V37a1,1,0,0,1,2,0v1A.99974.99974,0,0,1,17,39Z" style="fill: #00e0c5"/>
  <path d="M21,39a.99974.99974,0,0,1-1-1V37a1,1,0,0,1,2,0v1A.99974.99974,0,0,1,21,39Z" style="fill: #00e0c5"/>
  <path d="M32,40H1a.99974.99974,0,0,1-1-1V16a1.00027,1.00027,0,0,1,1.5957-.80322l31,23A1.0001,1.0001,0,0,1,32,40ZM2,38H28.97363L2,17.9873Z" style="fill: #4931b1"/>
</svg>
