<svg id="fe71a391-fb0b-41ca-a02b-d3510275c1dd" data-name="Layer 1" xmlns="http://www.w3.org/2000/svg" width="40" height="40" viewBox="0 0 40 40">
  <path d="M20,40A20,20,0,1,1,40,20,20.02292,20.02292,0,0,1,20,40ZM20,2A18,18,0,1,0,38,20,18.02031,18.02031,0,0,0,20,2Z" style="fill: #f6e251"/>
  <path d="M34.269,33.00049a.9972.9972,0,0,1-.77539-.36817,20.00182,20.00182,0,0,1,0-25.26416.99985.99985,0,0,1,1.54981,1.26368,18.00317,18.00317,0,0,0,0,22.73681,1,1,0,0,1-.77442,1.63184Z" style="fill: #f6e251"/>
  <path d="M5.99951,33.00049a1,1,0,0,1-.77441-1.63184A18.03686,18.03686,0,0,0,9.26855,20,18.03451,18.03451,0,0,0,5.2251,8.63184.99985.99985,0,1,1,6.7749,7.36816,20.03629,20.03629,0,0,1,11.26855,20,20.03859,20.03859,0,0,1,6.7749,32.63232.99718.99718,0,0,1,5.99951,33.00049Z" style="fill: #f6e251"/>
  <path d="M12.86572,21H7a1,1,0,0,1,0-2h5.86572a1,1,0,0,1,0,2Z" style="fill: #7ae076"/>
  <path d="M12,28.00049a.99221.99221,0,0,1-.34082-.06055l-5.51416-2a.99982.99982,0,1,1,.68164-1.87988l5.51416,2A1.00024,1.00024,0,0,1,12,28.00049Z" style="fill: #00e0c5"/>
  <path d="M6.48584,16.00049A1.00024,1.00024,0,0,1,6.145,14.06006l5.51416-2a.99982.99982,0,0,1,.68164,1.87988l-5.51416,2A.99221.99221,0,0,1,6.48584,16.00049Z" style="fill: #f6e251"/>
  <path d="M32.86572,21H27a1,1,0,0,1,0-2h5.86572a1,1,0,0,1,0,2Z" style="fill: #009bff"/>
  <path d="M27.86572,28.00049a1.00024,1.00024,0,0,1-.34082-1.94043l5.51416-2a.99982.99982,0,0,1,.68164,1.87988l-5.51416,2A.99221.99221,0,0,1,27.86572,28.00049Z" style="fill: #f6e251"/>
  <path d="M33.37988,16.00049a.99225.99225,0,0,1-.34082-.06055l-5.51416-2a.99982.99982,0,1,1,.68164-1.87988l5.51416,2a1.00024,1.00024,0,0,1-.34082,1.94043Z" style="fill: #4931b1"/>
</svg>
