<?xml version="1.0" encoding="utf-8"?>
<!-- Generator: Adobe Illustrator 22.0.1, SVG Export Plug-In . SVG Version: 6.00 Build 0)  -->
<svg version="1.1" id="Layer_1" xmlns="http://www.w3.org/2000/svg" xmlns:xlink="http://www.w3.org/1999/xlink" x="0px" y="0px"
	 width="28.3px" height="40px" viewBox="0 0 28.3 40" style="enable-background:new 0 0 28.3 40;" xml:space="preserve">
<style type="text/css">
	.st0{fill:#F4E151;}
	.st1{fill:#85C071;}
</style>
<g>
	<path class="st0" d="M14.6,0.1C14.6,0.1,14.6,0.1,14.6,0.1c-0.1,0-0.2,0-0.2-0.1c-0.1,0-0.1,0-0.2,0C14.1,0,14,0,14,0
		c-0.1,0-0.1,0-0.2,0c0,0,0,0-0.1,0C13.5,0.2-8,10.8,3.2,39.4C3.4,39.7,3.8,40,4.2,40h10h10c0.4,0,0.8-0.3,0.9-0.6
		C36.3,10.8,14.8,0.2,14.6,0.1z M14.2,2.1c2.7,1.5,16.7,10.3,10.7,31.7c-10.2-4-18.9-1.1-21.4,0C-2.6,12.4,11.4,3.6,14.2,2.1z
		 M23.5,38h-9.3H4.9c-0.3-0.8-0.6-1.5-0.8-2.3c1.9-0.8,10.4-3.9,20.2,0C24,36.5,23.8,37.2,23.5,38z"/>
</g>
<path class="st1" d="M19.2,14h-4v-4c0-0.6-0.4-1-1-1s-1,0.4-1,1v4h-4c-0.6,0-1,0.4-1,1s0.4,1,1,1h4v13c0,0.6,0.4,1,1,1s1-0.4,1-1V16
	h4c0.6,0,1-0.4,1-1S19.7,14,19.2,14z"/>
</svg>
