<svg xmlns="http://www.w3.org/2000/svg" viewBox="0 0 40 35.93"><defs><style>.a6800460-7f07-4f98-933c-63c8e561d06d{fill:#7ae076;}.fa9b0bde-774c-4c23-b82e-459969975c74{fill:#00e0c5;}.fd5f0f6f-8cfe-46ec-8f1e-a6c93220bc4f{fill:#009bff;}.e7f4658a-766e-4f61-b1d8-262dc0fe7f46{fill:#f6e251;}.f73ae55e-7224-4828-bd48-82c3cb5969de{fill:#4931b1;}</style></defs><title>Asset 6</title><g id="fe741a89-80e2-42ec-bc06-c93888d73525" data-name="Layer 2"><g id="a5d2554f-3475-40f0-a474-57a559f85bd4" data-name="Layer 1"><path class="a6800460-7f07-4f98-933c-63c8e561d06d" d="M10.8,22a3.5,3.5,0,1,1,3.49-3.5A3.5,3.5,0,0,1,10.8,22Zm0-5a1.5,1.5,0,1,0,1.49,1.5A1.5,1.5,0,0,0,10.8,17Z"/><path class="a6800460-7f07-4f98-933c-63c8e561d06d" d="M29.25,22a3.5,3.5,0,1,1,3.49-3.5A3.5,3.5,0,0,1,29.25,22Zm0-5a1.5,1.5,0,1,0,1.49,1.5A1.5,1.5,0,0,0,29.25,17Z"/><path class="fa9b0bde-774c-4c23-b82e-459969975c74" d="M23,19.5H17a1,1,0,0,1,0-2h6a1,1,0,1,1,0,2Z"/><path class="fd5f0f6f-8cfe-46ec-8f1e-a6c93220bc4f" d="M10.8,32a4,4,0,0,1-4-4V25a1,1,0,0,1,1-1h6a1,1,0,0,1,1,1v3A4,4,0,0,1,10.8,32Zm-2-6v2a2,2,0,1,0,4,0V26Z"/><path class="fd5f0f6f-8cfe-46ec-8f1e-a6c93220bc4f" d="M29.25,32a4,4,0,0,1-4-4V25a1,1,0,0,1,1-1h6a1,1,0,0,1,1,1v3A4,4,0,0,1,29.25,32Zm-2-6v2a2,2,0,1,0,4,0V26Z"/><path class="e7f4658a-766e-4f61-b1d8-262dc0fe7f46" d="M34,13a1,1,0,0,1-1-.74L30.64,3.42A2.76,2.76,0,0,0,28.09,2H12A2.74,2.74,0,0,0,9.38,3.49,47.62,47.62,0,0,0,7.06,12a1,1,0,0,1-1,1,1,1,0,0,1-1-1A45.44,45.44,0,0,1,7.54,2.72,4.72,4.72,0,0,1,12,0H28.09a4.76,4.76,0,0,1,4.42,2.7.93.93,0,0,1,0,.13L35,11.74A1,1,0,0,1,34.24,13,1.09,1.09,0,0,1,34,13Z"/><rect class="f73ae55e-7224-4828-bd48-82c3cb5969de" y="33.93" width="40" height="2"/><path class="fd5f0f6f-8cfe-46ec-8f1e-a6c93220bc4f" d="M29.1,9a1,1,0,0,1-1-.68l-1.33-4a1,1,0,1,1,1.89-.64l1.34,4A1,1,0,0,1,29.42,9,1.25,1.25,0,0,1,29.1,9Z"/><path class="fd5f0f6f-8cfe-46ec-8f1e-a6c93220bc4f" d="M25,8a1,1,0,0,1-.95-.68l-1-3A1,1,0,0,1,25,3.68l1,3A1,1,0,0,1,25.32,8,1.25,1.25,0,0,1,25,8Z"/><path class="e7f4658a-766e-4f61-b1d8-262dc0fe7f46" d="M3.06,12a3,3,0,0,1,0-6H7.2A1,1,0,0,1,8,6.39a1,1,0,0,1,.18.86l-1,3.92a1,1,0,0,1-1,.76L3.1,12Zm3.19-1h0ZM3.06,8a1,1,0,0,0-.7.29,1,1,0,0,0-.28.7,1,1,0,0,0,.29.7,1,1,0,0,0,.7.28l2.39,0L5.93,8Z"/><path class="e7f4658a-766e-4f61-b1d8-262dc0fe7f46" d="M36.84,12h0l-3.16,0a1,1,0,0,1-1-.76l-.95-3.92A1,1,0,0,1,32.7,6h4.14a3,3,0,0,1,3,3,3,3,0,0,1-3,3Zm-2.4-2,2.39,0a1,1,0,0,0,.7-.28,1,1,0,0,0,.29-.7,1,1,0,0,0-.29-.7A1,1,0,0,0,36.84,8H34Z"/><path class="e7f4658a-766e-4f61-b1d8-262dc0fe7f46" d="M32.59,26H7.46a5.4,5.4,0,0,1-5.39-5.39V16.39A5.4,5.4,0,0,1,7.46,11H32.59A5.4,5.4,0,0,1,38,16.39v4.22A5.4,5.4,0,0,1,32.59,26ZM7.46,13a3.39,3.39,0,0,0-3.39,3.39v4.22A3.39,3.39,0,0,0,7.46,24H32.59A3.39,3.39,0,0,0,36,20.61V16.39A3.39,3.39,0,0,0,32.59,13Z"/></g></g></svg>