<?xml version="1.0" encoding="utf-8"?>
<!-- Generator: Adobe Illustrator 19.1.0, SVG Export Plug-In . SVG Version: 6.00 Build 0)  -->
<!DOCTYPE svg PUBLIC "-//W3C//DTD SVG 1.1//EN" "http://www.w3.org/Graphics/SVG/1.1/DTD/svg11.dtd">
<svg version="1.1" id="Layer_1" xmlns="http://www.w3.org/2000/svg" xmlns:xlink="http://www.w3.org/1999/xlink" x="0px" y="0px"
	 width="40px" height="40px" viewBox="0 0 40 40" style="enable-background:new 0 0 40 40;" xml:space="preserve">
<style type="text/css">
	.st0{fill:#F6E251;}
	.st1{fill:#4931B1;}
	.st2{fill:#009BFF;}
	.st3{fill:#00E0C5;}
	.st4{fill:#7AE076;}
</style>
<g>
	<path class="st0" d="M20,40C9,40,0,31,0,20S9,0,20,0s20,9,20,20S31,40,20,40z M20,2C10.1,2,2,10.1,2,20s8.1,18,18,18s18-8.1,18-18
		S29.9,2,20,2z"/>
</g>
<g>
	<path class="st0" d="M20,24c-2.2,0-4-1.8-4-4s1.8-4,4-4s4,1.8,4,4S22.2,24,20,24z M20,18c-1.1,0-2,0.9-2,2s0.9,2,2,2s2-0.9,2-2
		S21.1,18,20,18z"/>
</g>
<g>
	<path class="st1" d="M20,14c-2.8,0-5-2.2-5-5s2.2-5,5-5s5,2.2,5,5S22.8,14,20,14z M20,6c-1.7,0-3,1.3-3,3s1.3,3,3,3s3-1.3,3-3
		S21.7,6,20,6z"/>
</g>
<g>
	<path class="st2" d="M30,22c-2.8,0-5-2.2-5-5s2.2-5,5-5s5,2.2,5,5S32.8,22,30,22z M30,14c-1.7,0-3,1.3-3,3s1.3,3,3,3s3-1.3,3-3
		S31.7,14,30,14z"/>
</g>
<g>
	<path class="st3" d="M10,22c-2.8,0-5-2.2-5-5s2.2-5,5-5s5,2.2,5,5S12.8,22,10,22z M10,14c-1.7,0-3,1.3-3,3s1.3,3,3,3s3-1.3,3-3
		S11.7,14,10,14z"/>
</g>
<g>
	<path class="st3" d="M26,34c-2.8,0-5-2.2-5-5s2.2-5,5-5s5,2.2,5,5S28.8,34,26,34z M26,26c-1.7,0-3,1.3-3,3s1.3,3,3,3s3-1.3,3-3
		S27.7,26,26,26z"/>
</g>
<g>
	<path class="st4" d="M14,34c-2.8,0-5-2.2-5-5s2.2-5,5-5s5,2.2,5,5S16.8,34,14,34z M14,26c-1.7,0-3,1.3-3,3s1.3,3,3,3s3-1.3,3-3
		S15.7,26,14,26z"/>
</g>
<g>
	<path class="st0" d="M39,40H20c-0.6,0-1-0.4-1-1s0.4-1,1-1h19c0.6,0,1,0.4,1,1S39.6,40,39,40z"/>
</g>
</svg>
