<svg id="e847daeb-c44f-47b7-bac0-8372170a0904" data-name="Layer 1" xmlns="http://www.w3.org/2000/svg" width="40" height="40" viewBox="0 0 40 40">
  <path d="M23.71045,26H16.30078a1,1,0,0,1-.95117-.69092l-2.28955-7.04687a1.00025,1.00025,0,0,1,.36328-1.11817l5.99463-4.355a.99957.99957,0,0,1,1.17578,0l5.99414,4.355a1.00025,1.00025,0,0,1,.36328,1.11817l-2.28955,7.04687A1,1,0,0,1,23.71045,26Zm-6.68311-2h5.95655l1.84033-5.665-4.81836-3.501L15.187,18.335Z" style="fill: #f6e251"/>
  <path d="M36.60156,19.84131a.99914.99914,0,0,1-.45361-.10889L29.5459,16.36816a1.0003,1.0003,0,0,1-.53369-1.04736l1.15918-7.31787a1.00013,1.00013,0,0,1,.83105-.83154l2.84082-.4502a1.00015,1.00015,0,0,1,.31348,1.97559L32.0332,9.0332,31.10156,14.916l5.30713,2.70459L37.73584,16.293A.99989.99989,0,0,1,39.1499,17.707l-1.84082,1.84131A.99969.99969,0,0,1,36.60156,19.84131Z" style="fill: #7ae076"/>
  <path d="M3.39844,19.84131a.99764.99764,0,0,1-.70752-.293L.8501,17.707A.99989.99989,0,0,1,2.26416,16.293l1.32715,1.32764L8.89844,14.916,7.9668,9.0332,5.84326,8.69678a1.00015,1.00015,0,0,1,.31348-1.97559l2.84082.4502a1.00013,1.00013,0,0,1,.831.83154l1.15918,7.31787a1.0003,1.0003,0,0,1-.53369,1.04736l-6.602,3.36426A.99914.99914,0,0,1,3.39844,19.84131Z" style="fill: #4931b1"/>
  <path d="M27.99951,37.54688a.99417.99417,0,0,1-.43017-.09766l-1.78907-.854a.99878.99878,0,0,1-.56054-1.0332l.97021-7.3457a.99938.99938,0,0,1,.80957-.85254l7.28613-1.34717a1.00379,1.00379,0,0,1,1.06055.50684l1.53272,2.82568a.9998.9998,0,0,1-1.75782.95313l-1.18652-2.187-5.85693,1.083-.78028,5.90528,1.1333.541a1,1,0,0,1-.43115,1.90235Z" style="fill: #00e0c5"/>
  <path d="M12.00049,37.54688a1,1,0,0,1-.43115-1.90235l1.13281-.541-.77979-5.90528-5.85693-1.083-1.18652,2.187a.9998.9998,0,0,1-1.75782-.95313l1.53272-2.82568a.999.999,0,0,1,1.06055-.50684l7.28613,1.34717a.99938.99938,0,0,1,.80957.85254l.96973,7.3457a.9988.9988,0,0,1-.56055,1.0332l-1.78858.854A.99417.99417,0,0,1,12.00049,37.54688Z" style="fill: #009bff"/>
  <path d="M20.00586,10a.99868.99868,0,0,1-.58789-.19092l-5.99463-4.355a1.00023,1.00023,0,0,1-.36328-1.11816l.85937-2.645a1.00013,1.00013,0,0,1,1.90235.61816L15.187,4.26318l4.81885,3.501,4.81836-3.501-.63477-1.9541a1.00013,1.00013,0,0,1,1.90235-.61816l.85937,2.645a1.00023,1.00023,0,0,1-.36328,1.11816l-5.99414,4.355A.99871.99871,0,0,1,20.00586,10Z" style="fill: #f6e251"/>
  <path d="M20,40A20,20,0,1,1,40,20,20.02292,20.02292,0,0,1,20,40ZM20,2A18,18,0,1,0,38,20,18.02031,18.02031,0,0,0,20,2Z" style="fill: #f6e251"/>
</svg>
