<svg id="a4611114-e334-4599-9f12-9f18395c1794" data-name="Layer 1" xmlns="http://www.w3.org/2000/svg" width="40" height="40" viewBox="0 0 40 40">
  <path d="M13.9209,39.99756a5.77713,5.77713,0,0,1-1.87988-.32617c-2.07325-.70752-4.17383-2.52881-6.69141-5.04639C1.55566,30.832-.14062,27.85889.00977,25.26855a5.98353,5.98353,0,0,1,2.52636-4.3789A14.04469,14.04469,0,0,1,9.7627,18.2998c1.39941-.1997,2.60839-.37158,3.13574-.89892.42285-.42334.41211-.52344.36328-.94531-.11719-1.02686-.07129-2.10059,1.76367-3.93555,2.86914-2.86963,6.792-.46191,8.46484,1.21045A1.00007,1.00007,0,0,1,22.07715,15.146c-.14063-.13916-3.46192-3.38721-5.6377-1.21192-1.30371,1.3042-1.249,1.78516-1.19043,2.294a2.74138,2.74138,0,0,1-.93652,2.58691c-.999.999-2.51367,1.21485-4.26758,1.46485A12.23818,12.23818,0,0,0,3.77637,22.458a4.03559,4.03559,0,0,0-1.77051,2.92627c-.11328,1.95215,1.44336,4.5122,4.75781,7.82666,2.32031,2.32031,4.21485,3.98486,5.92285,4.56787,1.14258.38867,2.58887.50683,4.66309-1.56787,1.8125-1.813,2.13281-4.22461,2.415-6.35254.23047-1.73389.42871-3.23145,1.39453-4.19678a2.74021,2.74021,0,0,1,2.58691-.93652c.51465.05957.99219.11035,2.294-1.19043,2.1748-2.17529-1.07227-5.49707-1.21094-5.6377a.99972.99972,0,0,1,1.415-1.41259c1.67285,1.67333,4.0791,5.5957,1.21,8.46435-1.834,1.83447-2.90625,1.88232-3.93555,1.76367-.42382-.0498-.52246-.06006-.94531.36328-.48633.48633-.65136,1.7295-.82519,3.04541-.3086,2.32227-.69239,5.21192-2.98438,7.50391A6.88125,6.88125,0,0,1,13.9209,39.99756Z" style="fill: #f6e251"/>
  <path d="M20.6084,22.72119a1,1,0,0,1-.707-1.707l13.39746-13.397a.99989.99989,0,0,1,1.41406,1.41406l-13.39746,13.397A.99672.99672,0,0,1,20.6084,22.72119Z" style="fill: #7ae076"/>
  <path d="M18.27832,20.3916a1,1,0,0,1-.707-1.707L30.96875,5.28711a.99989.99989,0,1,1,1.41406,1.41406L18.98535,20.09863A.99672.99672,0,0,1,18.27832,20.3916Z" style="fill: #7ae076"/>
  <path d="M34.58789,9.07617a2.99219,2.99219,0,0,1-2.12109-.87646l-.666-.667a3.00422,3.00422,0,0,1,0-4.24267L34.21484.87646a3.07829,3.07829,0,0,1,4.24219,0l.667.666a3.00481,3.00481,0,0,1,0,4.24268h0L36.71,8.19922A2.99327,2.99327,0,0,1,34.58789,9.07617ZM36.33594,2a.99191.99191,0,0,0-.707.29053L33.21484,4.70459a1.0038,1.0038,0,0,0,0,1.41357l.666.667a1.00171,1.00171,0,0,0,1.415-.00049L37.71,4.37109a1.0014,1.0014,0,0,0,0-1.41406l-.667-.666A.99035.99035,0,0,0,36.33594,2Zm2.081,3.07812h0Z" style="fill: #7ae076"/>
  <path d="M14.07324,32.75146a.99675.99675,0,0,1-.707-.293L7.541,26.63379a.99989.99989,0,0,1,1.41406-1.41406l5.82519,5.8247a1,1,0,0,1-.707,1.707Z" style="fill: #009bff"/>
  <path d="M17.11328,27.18115a4.29443,4.29443,0,1,1,3.03711-1.25781A4.26781,4.26781,0,0,1,17.11328,27.18115Zm0-6.58984a2.29492,2.29492,0,0,0-1.623,3.918,2.35132,2.35132,0,0,0,3.2461,0,2.29635,2.29635,0,0,0,0-3.2461h0A2.27949,2.27949,0,0,0,17.11328,20.59131Z" style="fill: #00e0c5"/>
</svg>
