<svg xmlns="http://www.w3.org/2000/svg" xmlns:xlink="http://www.w3.org/1999/xlink" width="22" height="22" viewBox="0 0 22 22"><defs><path id="a" d="M0 0h22v22h-22z"/></defs><clipPath id="b"><use xlink:href="#a" overflow="visible"/></clipPath><path clip-path="url(#b)" fill="#fff" d="M19.2,0H2.8C1.3,0,0,1.3,0,2.8v16.3C0,20.7,1.3,22,2.8,22h16.3c1.6,0,2.8-1.3,2.8-2.8V2.8C22,1.3,20.7,0,19.2,0z M11,7c2.2,0,4,1.8,4,4s-1.8,4-4,4s-4-1.8-4-4S8.8,7,11,7z M15.1,6V2.9C15.1,2.4,15.5,2,16,2h3.1C19.6,2,20,2.4,20,2.9V6c0,0.5-0.4,0.9-0.9,0.9H16C15.5,6.9,15.1,6.5,15.1,6z M19.2,20H2.8C2.4,20,2,19.6,2,19.2V11h3c0,3.3,2.7,6,6,6s6-2.7,6-6h3v8.2C20,19.6,19.6,20,19.2,20z"/></svg>