<?xml version="1.0" encoding="utf-8"?>
<!-- Generator: Adobe Illustrator 19.1.0, SVG Export Plug-In . SVG Version: 6.00 Build 0)  -->
<!DOCTYPE svg PUBLIC "-//W3C//DTD SVG 1.1//EN" "http://www.w3.org/Graphics/SVG/1.1/DTD/svg11.dtd">
<svg version="1.1" id="Layer_1" xmlns="http://www.w3.org/2000/svg" xmlns:xlink="http://www.w3.org/1999/xlink" x="0px" y="0px"
	 width="39.6px" height="40.1px" viewBox="0 0 39.6 40.1" style="enable-background:new 0 0 39.6 40.1;" xml:space="preserve">
<style type="text/css">
	.st0{fill:#F6E251;}
	.st1{fill:#009BFF;}
	.st2{fill:#4931B1;}
</style>
<g>
	<path class="st0" d="M29.9,40.1c-3.1,0-5.7-2.5-5.7-5.7c0-0.1-0.1-4.4,4.9-11.8c0.4-0.5,1.2-0.5,1.6,0c5,7.5,4.9,11.7,4.9,11.9
		C35.6,37.5,33,40.1,29.9,40.1z M29.9,24.9c-3.8,6.1-3.7,9.5-3.7,9.5c0,2.1,1.7,3.8,3.7,3.8s3.7-1.7,3.7-3.7
		C33.7,34.3,33.7,31,29.9,24.9z"/>
</g>
<g>
	<path class="st1" d="M20.3,26.9c-0.3,0-0.5-0.1-0.7-0.3L15,21.1c-0.2-0.2-0.2-0.4-0.2-0.7c0-0.2,0.1-0.5,0.3-0.6L38.1,0.2
		c0.3-0.2,0.7-0.3,1-0.1c0.3,0.2,0.5,0.5,0.5,0.8c0,0.4-0.3,10.1-5.7,14.6L20.9,26.7C20.7,26.8,20.5,26.9,20.3,26.9z M17,20.6
		l3.5,4.1l12.4-10.5C36.1,11.4,37.2,6,37.6,3L17,20.6z"/>
</g>
<g>
	<path class="st2" d="M5.2,40c-0.2,0-0.4,0-0.6,0c-1.3-0.2-2.5-0.8-3.4-1.8c-1.8-2.1-1.7-5.3,0.4-7l13.5-11.4c0.4-0.3,1-0.3,1.3,0.1
		l4.6,5.5c0.2,0.2,0.3,0.6,0.2,0.8s-0.3,0.5-0.6,0.6c-0.1,0-8.2,2.5-10.8,8.3c0,1.5-0.5,2.8-1.6,3.7C7.4,39.6,6.3,40,5.2,40z
		 M15.6,21.8L2.8,32.5c-1.2,1.1-1.3,3-0.1,4.4c0.6,0.7,1.4,1.1,2.2,1.2C5.7,38.3,6.4,38,7,37.5c0.7-0.6,1-1.5,1-2.4
		c0-0.1,0-0.3,0.1-0.4c2.2-5.3,8.1-8.1,10.7-9.1L15.6,21.8z"/>
</g>
<g>
	<path class="st0" d="M21.9,21c-0.3,0-0.5-0.1-0.7-0.3c-0.3-0.4-0.3-1,0.1-1.3l9-8c0.4-0.3,1-0.3,1.3,0.1c0.3,0.4,0.3,1-0.1,1.3
		l-9,8C22.3,20.9,22.1,21,21.9,21z"/>
</g>
</svg>
