<?xml version="1.0" encoding="utf-8"?>
<!-- Generator: Adobe Illustrator 19.1.0, SVG Export Plug-In . SVG Version: 6.00 Build 0)  -->
<!DOCTYPE svg PUBLIC "-//W3C//DTD SVG 1.1//EN" "http://www.w3.org/Graphics/SVG/1.1/DTD/svg11.dtd">
<svg version="1.1" id="Layer_1" xmlns="http://www.w3.org/2000/svg" xmlns:xlink="http://www.w3.org/1999/xlink" x="0px" y="0px"
	 width="39.9px" height="40px" viewBox="0 0 39.9 40" style="enable-background:new 0 0 39.9 40;" xml:space="preserve">
<style type="text/css">
	.st0{fill:#F6E251;}
	.st1{fill:#009BFF;}
	.st2{fill:#7AE076;}
</style>
<g>
	<path class="st0" d="M18.4,36.4c-0.6,0-1.3-0.2-1.8-0.7L3.8,22.8c-0.4-0.4-0.4-1,0-1.4s1-0.4,1.4,0L18,34.2c0.2,0.2,0.5,0.2,0.8,0
		l12.8-12.8c0.1-0.1,0.2-0.3,0.2-0.4c0-0.1,0-0.2-0.2-0.4L18.8,7.8c-0.2-0.2-0.5-0.2-0.8,0L11.9,14c-0.4,0.4-1,0.4-1.4,0
		s-0.4-1,0-1.4l6.1-6.1c1-1,2.6-1,3.6,0L33,19.2c0.5,0.5,0.7,1.1,0.7,1.8c0,0.7-0.3,1.3-0.7,1.8L20.2,35.6
		C19.7,36.1,19.1,36.4,18.4,36.4z"/>
</g>
<g>
	<path class="st0" d="M9.8,28.4c-0.3,0-0.5-0.1-0.7-0.3l-6.3-6.3C2.3,21.3,2,20.5,2,19.8s0.3-1.5,0.9-2.1l5.1-5.1
		c1.1-1.1,3-1.1,4.1,0l5.4,5.4c0.4,0.4,0.4,1,0,1.4s-1,0.4-1.4,0l-5.4-5.4c-0.3-0.3-1-0.3-1.3,0l-5.1,5.1C4.1,19.3,4,19.5,4,19.8
		s0.1,0.5,0.3,0.6l6.3,6.3c0.4,0.4,0.4,1,0,1.4C10.4,28.3,10.1,28.4,9.8,28.4z"/>
</g>
<g>
	<path class="st0" d="M20.2,27.3c-0.6,0-1.3-0.2-1.8-0.7l-2.5-2.5c-0.4-0.4-0.4-1,0-1.4s1-0.4,1.4,0l2.5,2.5c0.2,0.2,0.5,0.2,0.8,0
		l4.3-4.3c0.4-0.4,1-0.4,1.4,0s0.4,1,0,1.4L22,26.6C21.5,27.1,20.9,27.3,20.2,27.3z"/>
</g>
<g>
	<path class="st0" d="M14.4,25.2c-1.1,0-2.1-0.4-3-1.2c-0.8-0.8-1.2-1.8-1.2-2.9c0-0.6,0.4-1,1-1c0.6,0,1,0.4,1,1
		c0,0.6,0.2,1.1,0.6,1.5c0.9,0.9,2.2,0.9,3.1,0c0.9-0.9,0.9-2.2,0-3.1c-0.4-0.4-0.4-1,0-1.4s1-0.4,1.4,0c1.6,1.6,1.6,4.3,0,5.9
		C16.6,24.8,15.5,25.2,14.4,25.2z"/>
</g>
<g>
	<path class="st0" d="M11.2,40c-0.6,0-1.3-0.2-1.8-0.7l-8.7-8.7C0.3,30.1,0,29.5,0,28.8s0.3-1.3,0.7-1.8l4.3-4.3
		c0.4-0.4,1-0.4,1.4,0s0.4,1,0,1.4l-4.3,4.3C2,28.5,2,28.7,2,28.8s0,0.2,0.2,0.4l8.7,8.7c0.2,0.2,0.5,0.2,0.8,0l4.3-4.3
		c0.4-0.4,1-0.4,1.4,0s0.4,1,0,1.4L13,39.2C12.5,39.7,11.8,40,11.2,40z"/>
</g>
<g>
	<path class="st1" d="M11.4,33.2c-0.1,0-0.2,0-0.3-0.1l-5.4-1.8c-0.5-0.2-0.8-0.7-0.6-1.3c0.2-0.5,0.7-0.8,1.3-0.6l5.4,1.8
		c0.5,0.2,0.8,0.7,0.6,1.3C12.2,33,11.8,33.2,11.4,33.2z"/>
</g>
<g>
	<path class="st1" d="M9.6,35c-0.4,0-0.8-0.3-0.9-0.7l-1.8-5.4c-0.2-0.5,0.1-1.1,0.6-1.3c0.5-0.2,1.1,0.1,1.3,0.6l1.8,5.4
		c0.2,0.5-0.1,1.1-0.6,1.3C9.8,35,9.7,35,9.6,35z"/>
</g>
<g>
	<path class="st2" d="M32,32.8c-0.1,0-0.1,0-0.2,0L27.6,32c-0.5-0.1-0.9-0.6-0.8-1.2c0.1-0.5,0.6-0.9,1.2-0.8l3.2,0.6l0.4-3.2
		c0.1-0.4,0.4-0.7,0.7-0.8l3.1-0.8l-0.9-3.1c-0.1-0.4,0-0.8,0.3-1.1l2.6-2l-2.1-2.5c-0.3-0.3-0.3-0.8-0.1-1.1l1.5-2.9l-2.9-1.4
		c-0.4-0.2-0.6-0.6-0.6-1l0.2-3.2l-3.2-0.1c-0.4,0-0.8-0.3-0.9-0.7l-1.1-3l-3,1.2c-0.4,0.2-0.8,0.1-1.1-0.2l-2.2-2.3l-2.2,2.3
		C19.4,5.1,19,5.1,18.6,5l-3-1.2l-1.1,3c-0.1,0.4-0.5,0.6-0.9,0.7l-3.2,0.1l0.2,2.3c0,0.6-0.4,1-0.9,1.1c-0.6,0-1-0.4-1.1-0.9
		L8.3,6.7c0-0.3,0.1-0.5,0.3-0.7C8.7,5.8,9,5.6,9.2,5.6l3.6-0.1l1.2-3.4c0.1-0.3,0.3-0.5,0.5-0.6s0.5-0.1,0.8,0l3.3,1.3l2.5-2.6
		c0.4-0.4,1.1-0.4,1.4,0l2.5,2.6l3.3-1.3c0.2-0.1,0.5-0.1,0.8,0c0.2,0.1,0.4,0.3,0.5,0.6L31,5.5l3.6,0.1c0.3,0,0.5,0.1,0.7,0.3
		c0.2,0.2,0.3,0.5,0.3,0.7l-0.3,3.6l3.2,1.6c0.2,0.1,0.4,0.3,0.5,0.6c0.1,0.3,0.1,0.5-0.1,0.8l-1.7,3.2l2.3,2.8
		c0.2,0.2,0.3,0.5,0.2,0.7s-0.2,0.5-0.4,0.7l-2.8,2.2l1,3.5c0.1,0.3,0,0.5-0.1,0.8s-0.4,0.4-0.6,0.5l-3.5,0.9L33,31.9
		c0,0.3-0.2,0.5-0.4,0.7C32.4,32.7,32.2,32.8,32,32.8z"/>
</g>
</svg>
