<?xml version="1.0" encoding="utf-8"?>
<!-- Generator: Adobe Illustrator 19.1.0, SVG Export Plug-In . SVG Version: 6.00 Build 0)  -->
<!DOCTYPE svg PUBLIC "-//W3C//DTD SVG 1.1//EN" "http://www.w3.org/Graphics/SVG/1.1/DTD/svg11.dtd">
<svg version="1.1" id="Layer_1" xmlns="http://www.w3.org/2000/svg" xmlns:xlink="http://www.w3.org/1999/xlink" x="0px" y="0px"
	 width="40px" height="40.1px" viewBox="0 0 40 40.1" style="enable-background:new 0 0 40 40.1;" xml:space="preserve">
<style type="text/css">
	.st0{fill:#F6E251;}
	.st1{fill:#4931B1;}
	.st2{fill:#009BFF;}
	.st3{fill:#00E0C5;}
	.st4{fill:#7AE076;}
</style>
<path class="st0" d="M20,2l2.2,6.9h7.3l-5.9,4.3l2.2,6.9L20,15.8l-5.9,4.3l2.2-6.9l-5.9-4.3h7.3L20,2 M29.5,8.9L29.5,8.9 M20,0
	c-0.9,0-1.6,0.6-1.9,1.4l-1.8,5.5h-5.8c-0.9,0-1.6,0.6-1.9,1.4s0,1.7,0.7,2.2l4.7,3.4l-1.8,5.5c-0.3,0.8,0,1.7,0.7,2.2
	c0.4,0.3,0.8,0.4,1.2,0.4c0.4,0,0.8-0.1,1.2-0.4l4.7-3.4l4.7,3.4c0.4,0.3,0.8,0.4,1.2,0.4c0.4,0,0.8-0.1,1.2-0.4
	c0.7-0.5,1-1.4,0.7-2.2L26,13.9l4.7-3.4c0.5-0.4,0.9-1,0.9-1.6c0-1.1-0.9-2-2-2h0h-5.8l-1.8-5.5C21.6,0.6,20.9,0,20,0L20,0z"/>
<g>
	<path class="st1" d="M39,25.1H1c-0.6,0-1-0.4-1-1s0.4-1,1-1h38c0.6,0,1,0.4,1,1S39.6,25.1,39,25.1z"/>
</g>
<g>
	<path class="st1" d="M34,28.1H5c-0.6,0-1-0.4-1-1s0.4-1,1-1h29c0.6,0,1,0.4,1,1S34.6,28.1,34,28.1z"/>
</g>
<g>
	<path class="st1" d="M10,40.1c-0.6,0-1-0.4-1-1v-9c0-0.6,0.4-1,1-1s1,0.4,1,1v9C11,39.6,10.6,40.1,10,40.1z"/>
</g>
<g>
	<path class="st2" d="M15,40.1c-0.6,0-1-0.4-1-1v-9c0-0.6,0.4-1,1-1s1,0.4,1,1v9C16,39.6,15.6,40.1,15,40.1z"/>
</g>
<g>
	<path class="st3" d="M20,40.1c-0.6,0-1-0.4-1-1v-9c0-0.6,0.4-1,1-1s1,0.4,1,1v9C21,39.6,20.6,40.1,20,40.1z"/>
</g>
<g>
	<path class="st4" d="M25,40.1c-0.6,0-1-0.4-1-1v-9c0-0.6,0.4-1,1-1s1,0.4,1,1v9C26,39.6,25.6,40.1,25,40.1z"/>
</g>
<g>
	<path class="st0" d="M30,40.1c-0.6,0-1-0.4-1-1v-9c0-0.6,0.4-1,1-1s1,0.4,1,1v9C31,39.6,30.6,40.1,30,40.1z"/>
</g>
</svg>
