<svg xmlns="http://www.w3.org/2000/svg" width="58.924" height="34.373" viewBox="0 0 58.924 34.373"><path fill="#CB001C" d="M0 31.729h58.924v2.644h-58.924z"/><path fill="#fff" d="M0 29.084h58.924v2.646h-58.924z"/><path fill="#CB001C" d="M0 26.442h58.924v2.642h-58.924z"/><path fill="#fff" d="M0 23.797h58.924v2.645h-58.924z"/><path fill="#CB001C" d="M0 21.152h58.924v2.645h-58.924z"/><path fill="#fff" d="M0 18.51h58.924v2.643h-58.924z"/><path fill="#CB001C" d="M0 15.866h58.924v2.644h-58.924z"/><path fill="#fff" d="M0 13.221h58.924v2.643h-58.924z"/><path fill="#CB001C" d="M0 10.576h58.924v2.644h-58.924z"/><path fill="#fff" d="M0 7.932h58.924v2.644h-58.924z"/><path fill="#CB001C" d="M0 5.287h58.924v2.645h-58.924z"/><path fill="#fff" d="M0 2.645h58.924v2.642h-58.924z"/><path fill="#CB001C" d="M0 0h58.924v2.644h-58.924z"/><path fill="#2A3560" d="M0 .001h26.903v18.509h-26.903z"/><path fill="#fff" d="M2.426 2.039l.228.701h.734l-.594.432.227.699-.595-.434-.595.434.227-.699-.594-.432h.735zM2.426 5.129l.228.699h.734l-.594.432.227.701-.595-.434-.595.434.227-.701-.594-.432h.735zM2.426 8.219l.228.699h.734l-.594.432.227.701-.595-.434-.595.434.227-.701-.594-.432h.735zM2.426 11.309l.228.699h.734l-.594.433.227.698-.595-.432-.595.432.227-.698-.594-.433h.735zM2.426 14.398l.228.7h.734l-.594.431.227.7-.595-.433-.595.433.227-.7-.594-.431h.735zM4.578 3.668l.227.699h.736l-.595.432.226.699-.594-.432-.596.432.227-.699-.593-.432h.735zM4.578 6.758l.227.697h.736l-.595.434.226.699-.594-.432-.596.432.227-.699-.593-.434h.735zM4.578 9.846l.227.699h.736l-.595.434.226.699-.594-.432-.596.432.227-.699-.593-.434h.735zM4.578 12.936l.227.699h.736l-.595.433.226.698-.594-.433-.596.433.227-.698-.593-.433h.735zM6.757 2.039l.227.701h.735l-.594.432.228.699-.596-.434-.596.434.228-.699-.595-.432h.735zM6.757 5.129l.227.699h.735l-.594.432.228.701-.596-.434-.596.434.228-.701-.595-.432h.735zM6.757 8.219l.227.699h.735l-.594.432.228.701-.596-.434-.596.434.228-.701-.595-.432h.735zM6.757 11.309l.227.699h.735l-.594.433.228.698-.596-.432-.596.432.228-.698-.595-.433h.735zM6.757 14.398l.227.7h.735l-.594.431.228.7-.596-.433-.596.433.228-.7-.595-.431h.735zM8.909 3.668l.228.699h.735l-.596.432.227.699-.594-.432-.596.432.228-.699-.594-.432h.735zM8.909 6.758l.228.697h.735l-.596.434.227.699-.594-.432-.596.432.228-.699-.594-.434h.735zM8.909 9.846l.228.699h.735l-.596.434.227.699-.594-.432-.596.432.228-.699-.594-.434h.735zM8.909 12.936l.228.699h.735l-.596.433.227.698-.594-.433-.596.433.228-.698-.594-.433h.735zM11.088 2.039l.228.701h.735l-.595.432.227.699-.595-.434-.595.434.227-.699-.594-.432h.735zM11.088 5.129l.228.699h.735l-.595.432.227.701-.595-.434-.595.434.227-.701-.594-.432h.735zM11.088 8.219l.228.699h.735l-.595.432.227.701-.595-.434-.595.434.227-.701-.594-.432h.735zM11.088 11.309l.228.699h.735l-.595.433.227.698-.595-.432-.595.432.227-.698-.594-.433h.735zM11.088 14.398l.228.7h.735l-.595.431.227.7-.595-.433-.595.433.227-.7-.594-.431h.735zM13.24 3.668l.227.699h.735l-.595.432.227.699-.594-.432-.595.432.227-.699-.594-.432h.734zM13.24 6.758l.227.697h.735l-.595.434.227.699-.594-.432-.595.432.227-.699-.594-.434h.734zM13.24 9.846l.227.699h.735l-.595.434.227.699-.594-.432-.595.432.227-.699-.594-.434h.734zM13.24 12.936l.227.699h.735l-.595.433.227.698-.594-.433-.595.433.227-.698-.594-.433h.734zM15.419 2.039l.227.701h.736l-.595.432.227.699-.595-.434-.595.434.228-.699-.595-.432h.735zM15.419 5.129l.227.699h.736l-.595.432.227.701-.595-.434-.595.434.228-.701-.595-.432h.735zM15.419 8.219l.227.699h.736l-.595.432.227.701-.595-.434-.595.434.228-.701-.595-.432h.735zM15.419 11.309l.227.699h.736l-.595.433.227.698-.595-.432-.595.432.228-.698-.595-.433h.735zM15.419 14.398l.227.7h.736l-.595.431.227.7-.595-.433-.595.433.228-.7-.595-.431h.735zM17.571 3.668l.227.699h.735l-.594.432.227.699-.595-.432-.596.432.228-.699-.595-.432h.735zM17.571 6.758l.227.697h.735l-.594.434.227.699-.595-.432-.596.432.228-.699-.595-.434h.735zM17.571 9.846l.227.699h.735l-.594.434.227.699-.595-.432-.596.432.228-.699-.595-.434h.735zM17.571 12.936l.227.699h.735l-.594.433.227.698-.595-.433-.596.433.228-.698-.595-.433h.735zM19.75 2.039l.227.701h.736l-.595.432.227.699-.595-.434-.595.434.227-.699-.595-.432h.735zM19.75 5.129l.227.699h.736l-.595.432.227.701-.595-.434-.595.434.227-.701-.595-.432h.735zM19.75 8.219l.227.699h.736l-.595.432.227.701-.595-.434-.595.434.227-.701-.595-.432h.735zM19.75 11.309l.227.699h.736l-.595.433.227.698-.595-.432-.595.432.227-.698-.595-.433h.735zM19.75 14.398l.227.7h.736l-.595.431.227.7-.595-.433-.595.433.227-.7-.595-.431h.735zM21.901 3.668l.228.699h.735l-.594.432.226.699-.595-.432-.595.432.228-.699-.595-.432h.735zM21.901 6.758l.228.697h.735l-.594.434.226.699-.595-.432-.595.432.228-.699-.595-.434h.735zM21.901 9.846l.228.699h.735l-.594.434.226.699-.595-.432-.595.432.228-.699-.595-.434h.735zM21.901 12.936l.228.699h.735l-.594.433.226.698-.595-.433-.595.433.228-.698-.595-.433h.735zM24.081 2.039l.228.701h.734l-.594.432.227.699-.595-.434-.596.434.228-.699-.594-.432h.735zM24.081 5.129l.228.699h.734l-.594.432.227.701-.595-.434-.596.434.228-.701-.594-.432h.735zM24.081 8.219l.228.699h.734l-.594.432.227.701-.595-.434-.596.434.228-.701-.594-.432h.735zM24.081 11.309l.228.699h.734l-.594.433.227.698-.595-.432-.596.432.228-.698-.594-.433h.735zM24.081 14.398l.228.7h.734l-.594.431.227.7-.595-.433-.596.433.228-.7-.594-.431h.735z"/></svg>