<?xml version="1.0" encoding="utf-8"?>
<!-- Generator: Adobe Illustrator 22.0.1, SVG Export Plug-In . SVG Version: 6.00 Build 0)  -->
<svg version="1.1" id="Layer_1" xmlns="http://www.w3.org/2000/svg" xmlns:xlink="http://www.w3.org/1999/xlink" x="0px" y="0px"
	 width="40px" height="40px" viewBox="0 0 40 40" style="enable-background:new 0 0 40 40;" xml:space="preserve">
<style type="text/css">
	.st0{fill:#F4E151;}
	.st1{fill:#463F91;}
	.st2{fill:#85C071;}
</style>
<g>
	<path class="st0" d="M20,40C9,40,0,31,0,20C0,9,9,0,20,0s20,9,20,20C40,31,31,40,20,40z M20,2C10.1,2,2,10.1,2,20
		c0,9.9,8.1,18,18,18s18-8.1,18-18C38,10.1,29.9,2,20,2z"/>
</g>
<g>
	<path class="st1" d="M20,24c-1.1,0-2.1-0.4-2.8-1.2C16.4,22.1,16,21.1,16,20c0-1.1,0.4-2.1,1.2-2.8c1.5-1.5,4.1-1.5,5.7,0
		c0.8,0.8,1.2,1.8,1.2,2.8c0,1.1-0.4,2.1-1.2,2.8C22.1,23.6,21.1,24,20,24z M20,18c-0.5,0-1,0.2-1.4,0.6S18,19.5,18,20
		s0.2,1,0.6,1.4c0.8,0.8,2.1,0.8,2.8,0l0,0C21.8,21,22,20.5,22,20s-0.2-1-0.6-1.4C21,18.2,20.5,18,20,18z"/>
</g>
<g>
	<path class="st2" d="M9.4,31.6c-0.3,0-0.5-0.1-0.7-0.3c-0.3-0.3-0.4-0.7-0.2-1.1l6.4-14.8c0.1-0.2,0.3-0.4,0.5-0.5l14.8-6.4
		c0.4-0.2,0.8-0.1,1.1,0.2s0.4,0.7,0.2,1.1l-6.4,14.8c-0.1,0.2-0.3,0.4-0.5,0.5L9.8,31.5C9.7,31.6,9.5,31.6,9.4,31.6z M16.5,16.5
		l-5.2,12.2l12.2-5.2l5.2-12.2L16.5,16.5z"/>
</g>
</svg>
