<?xml version="1.0" encoding="utf-8"?>
<!-- Generator: Adobe Illustrator 19.1.0, SVG Export Plug-In . SVG Version: 6.00 Build 0)  -->
<!DOCTYPE svg PUBLIC "-//W3C//DTD SVG 1.1//EN" "http://www.w3.org/Graphics/SVG/1.1/DTD/svg11.dtd">
<svg version="1.1" id="Layer_1" xmlns="http://www.w3.org/2000/svg" xmlns:xlink="http://www.w3.org/1999/xlink" x="0px" y="0px"
	 width="40px" height="40px" viewBox="0 0 40 40" style="enable-background:new 0 0 40 40;" xml:space="preserve">
<style type="text/css">
	.st0{fill:#F6E251;}
	.st1{fill:#7AE076;}
	.st2{fill:#00E0C5;}
	.st3{fill:#009BFF;}
	.st4{fill:#4931B1;}
</style>
<g>
	<path class="st0" d="M15.9,16.3H2.1c-0.6,0-1-0.4-1-1s0.4-1,1-1h12.8c-0.1-0.3-0.3-0.7-0.8-1.1c-0.4-0.4-0.8-0.7-1.2-1
		c-1.3-1-2.5-2-1.9-3.5c0.8-2.1,1.3-4.7,0.2-5.8C9.9,1.7,8,1.7,6.9,2.9c-0.4,0.4-1,0.4-1.4,0c-0.4-0.4-0.4-1,0-1.4
		c1.9-2,5.1-2,7.1,0c2.2,2.1,0.9,6.3,0.3,7.9c0.1,0.2,0.8,0.8,1.3,1.3c0.4,0.3,0.8,0.7,1.3,1.1c1.8,1.6,1.7,3.3,1.4,4
		C16.6,16.1,16.3,16.3,15.9,16.3z"/>
</g>
<g>
	<path class="st0" d="M2.2,16.3c-0.4,0-0.7-0.2-0.9-0.6c-0.4-0.7-0.5-2.4,1.4-4c0.4-0.4,0.9-0.7,1.3-1c0.6-0.4,1.3-1.1,1.4-1.3
		C4.6,7.7,3.3,3.6,5.5,1.4c2-1.9,5.1-1.9,7.1,0c0.4,0.4,0.4,1,0,1.4c-0.4,0.4-1,0.4-1.4,0c-1.2-1.2-3.1-1.2-4.3,0
		C5.8,3.9,6.3,6.6,7.1,8.7c0.6,1.5-0.7,2.5-2,3.6c-0.4,0.3-0.8,0.6-1.2,1c-1.1,1-0.9,1.7-0.9,1.7c0.2,0.5,0,1.1-0.5,1.3
		C2.4,16.3,2.3,16.3,2.2,16.3z"/>
</g>
<g>
	<path class="st0" d="M36.9,25.3H23.2c-0.6,0-1-0.4-1-1s0.4-1,1-1h12.8c-0.1-0.3-0.3-0.7-0.8-1.1c-0.4-0.4-0.8-0.7-1.2-1
		c-1.3-1-2.5-2-1.9-3.5c0.8-2.1,1.3-4.7,0.2-5.8c-1.2-1.2-3.1-1.2-4.3,0c-0.4,0.4-1,0.4-1.4,0c-0.4-0.4-0.4-1,0-1.4
		c1.9-2,5.1-2,7.1,0c2.2,2.1,0.9,6.3,0.3,7.9c0.1,0.2,0.8,0.8,1.3,1.3c0.4,0.3,0.8,0.7,1.3,1.1c1.8,1.6,1.7,3.3,1.4,4
		C37.6,25.1,37.3,25.3,36.9,25.3z"/>
</g>
<g>
	<path class="st0" d="M23.2,25.3c-0.4,0-0.7-0.2-0.9-0.6c-0.4-0.7-0.5-2.4,1.4-4c0.4-0.4,0.9-0.7,1.3-1.1c0.6-0.4,1.3-1.1,1.4-1.3
		c-0.6-1.7-1.9-5.8,0.3-7.9c2-1.9,5.1-1.9,7.1,0c0.4,0.4,0.4,1,0,1.4c-0.4,0.4-1,0.4-1.4,0c-1.2-1.2-3.1-1.2-4.3,0
		c-1.1,1.1-0.6,3.7,0.2,5.8c0.6,1.5-0.7,2.5-2,3.6c-0.4,0.3-0.8,0.6-1.2,1c-1.1,1-0.9,1.7-0.9,1.7c0.2,0.5,0,1.1-0.5,1.3
		C23.5,25.3,23.3,25.3,23.2,25.3z"/>
</g>
<g>
	<path class="st1" d="M18,31H1c-0.6,0-1-0.4-1-1s0.4-1,1-1h17c0.6,0,1,0.4,1,1S18.6,31,18,31z"/>
</g>
<g>
	<path class="st2" d="M18,34H1c-0.6,0-1-0.4-1-1s0.4-1,1-1h17c0.6,0,1,0.4,1,1S18.6,34,18,34z"/>
</g>
<g>
	<path class="st3" d="M18,37H1c-0.6,0-1-0.4-1-1s0.4-1,1-1h17c0.6,0,1,0.4,1,1S18.6,37,18,37z"/>
</g>
<g>
	<path class="st4" d="M18,40H1c-0.6,0-1-0.4-1-1s0.4-1,1-1h17c0.6,0,1,0.4,1,1S18.6,40,18,40z"/>
</g>
<g>
	<path class="st1" d="M39,31H22c-0.6,0-1-0.4-1-1s0.4-1,1-1h17c0.6,0,1,0.4,1,1S39.6,31,39,31z"/>
</g>
<g>
	<path class="st2" d="M39,34H22c-0.6,0-1-0.4-1-1s0.4-1,1-1h17c0.6,0,1,0.4,1,1S39.6,34,39,34z"/>
</g>
<g>
	<path class="st3" d="M39,37H22c-0.6,0-1-0.4-1-1s0.4-1,1-1h17c0.6,0,1,0.4,1,1S39.6,37,39,37z"/>
</g>
<g>
	<path class="st4" d="M39,40H22c-0.6,0-1-0.4-1-1s0.4-1,1-1h17c0.6,0,1,0.4,1,1S39.6,40,39,40z"/>
</g>
<g>
	<path class="st1" d="M18,19H1c-0.6,0-1-0.4-1-1s0.4-1,1-1h17c0.6,0,1,0.4,1,1S18.6,19,18,19z"/>
</g>
<g>
	<path class="st2" d="M18,22H1c-0.6,0-1-0.4-1-1s0.4-1,1-1h17c0.6,0,1,0.4,1,1S18.6,22,18,22z"/>
</g>
<g>
	<path class="st3" d="M18,25H1c-0.6,0-1-0.4-1-1s0.4-1,1-1h17c0.6,0,1,0.4,1,1S18.6,25,18,25z"/>
</g>
<g>
	<path class="st4" d="M18,28H1c-0.6,0-1-0.4-1-1s0.4-1,1-1h17c0.6,0,1,0.4,1,1S18.6,28,18,28z"/>
</g>
<g>
	<path class="st4" d="M39,28H22c-0.6,0-1-0.4-1-1s0.4-1,1-1h17c0.6,0,1,0.4,1,1S39.6,28,39,28z"/>
</g>
</svg>
