<?xml version="1.0" encoding="utf-8"?>
<!-- Generator: Adobe Illustrator 19.1.0, SVG Export Plug-In . SVG Version: 6.00 Build 0)  -->
<!DOCTYPE svg PUBLIC "-//W3C//DTD SVG 1.1//EN" "http://www.w3.org/Graphics/SVG/1.1/DTD/svg11.dtd">
<svg version="1.1" id="Layer_1" xmlns="http://www.w3.org/2000/svg" xmlns:xlink="http://www.w3.org/1999/xlink" x="0px" y="0px"
	 width="40px" height="39.9px" viewBox="0 0 40 39.9" style="enable-background:new 0 0 40 39.9;" xml:space="preserve">
<style type="text/css">
	.st0{fill:#00E0C5;}
	.st1{fill:#4931B1;}
	.st2{fill:#009BFF;}
	.st3{fill:#F6E251;}
	.st4{fill:#7AE076;}
</style>
<g>
	<path class="st0" d="M39,19.4h-8c-0.6,0-1-0.4-1-1s0.4-1,1-1h8c0.6,0,1,0.4,1,1S39.6,19.4,39,19.4z"/>
</g>
<g>
	<path class="st1" d="M9,19.4H1c-0.6,0-1-0.4-1-1s0.4-1,1-1h8c0.6,0,1,0.4,1,1S9.6,19.4,9,19.4z"/>
</g>
<g>
	<path class="st1" d="M27.8,11.6c-0.3,0-0.5-0.1-0.7-0.3c-0.4-0.4-0.4-1,0-1.4l5.7-5.7c0.4-0.4,1-0.4,1.4,0s0.4,1,0,1.4l-5.7,5.7
		C28.3,11.5,28,11.6,27.8,11.6z"/>
</g>
<g>
	<path class="st2" d="M12.2,11.6c-0.3,0-0.5-0.1-0.7-0.3L5.9,5.7c-0.4-0.4-0.4-1,0-1.4s1-0.4,1.4,0l5.7,5.7c0.4,0.4,0.4,1,0,1.4
		C12.7,11.5,12.5,11.6,12.2,11.6z"/>
</g>
<path class="st3" d="M20,2c0.4,0,1.4,0.1,1.4,1.3c0,1.5-0.3,1.8-0.5,2.1c0,0,0,0,0,0c-0.1,0-0.3,1.1,0.8,1.6
	c1.1,0.5,2.4,0.4,2.1,2.7c-0.2,2.3-0.6,4.7-1.9,5.1c0,0.1,0.3,0.4,0.3,3.5c0,3-0.5,3.5-0.5,3.5s-0.1,1.5,0,2.1s-0.2,3.4-0.5,4.3
	c-0.1,0.1-0.5,3.3,0.8,3.5c1.3,0.2,2.5,0.4,2.7,1.3c0,0,0,0,0,0c0,0,0,0,0,0c0,0,0.3,0,0.7,0c0.8,0,2,0,2,0l2.4,5.1h-9.9H10l2.4-5.1
	c0,0,1.2,0,2,0c0.4,0,0.6,0,0.7,0c0,0,0,0,0,0c0,0,0,0,0,0c0.1-0.9,1.4-1.2,2.7-1.3c1.3-0.2,0.9-3.4,0.8-3.5
	c-0.3-0.9-0.6-3.6-0.5-4.3s0-2.1,0-2.1s-0.5-0.4-0.5-3.5c0-3,0.3-3.4,0.3-3.5c-1.3-0.4-1.6-2.8-1.9-5.1c-0.2-2.3,1-2.2,2.1-2.7
	c1.1-0.5,0.9-1.6,0.8-1.6c0,0,0,0,0,0c-0.2-0.4-0.5-0.6-0.5-2.1c0-1.2,1-1.3,1.4-1.3c0.1,0,0.2,0,0.2,0S19.9,2,20,2 M20,0
	c-0.1,0-0.1,0-0.2,0c0,0-0.1,0-0.2,0c-0.5,0-1.2,0.1-1.9,0.5c-1,0.6-1.5,1.6-1.5,2.8c0,1,0.1,1.6,0.3,2.1c-1,0.4-3,1.2-2.7,4.4
	c0.2,2.1,0.5,4.4,1.7,5.7c-0.1,0.6-0.1,1.4-0.1,2.6c0,1.8,0.2,3.1,0.5,4c0,0.5,0,1.1,0,1.4c-0.1,0.9,0.2,3.7,0.6,5
	c0,0.3,0.1,0.7,0,1.1c-0.9,0.2-2,0.5-2.7,1.2l-1.5,0c-0.8,0-1.5,0.4-1.8,1.1l-2.4,5.1C7.9,37.7,8,38.5,8.3,39c0.4,0.6,1,0.9,1.7,0.9
	h9.9h9.9c0.7,0,1.3-0.3,1.7-0.9c0.4-0.6,0.4-1.3,0.1-1.9l-2.4-5.1c-0.3-0.7-1-1.1-1.8-1.1l-1.5,0c-0.8-0.7-1.9-1-2.7-1.2
	c0-0.4,0-0.8,0-1.1c0.4-1.3,0.7-4.1,0.6-5c0-0.3,0-0.9,0-1.4c0.4-0.9,0.5-2.2,0.5-4c0-1.2,0-2-0.1-2.6c1.2-1.3,1.5-3.6,1.7-5.7
	c0.3-3.2-1.6-4.1-2.7-4.4c0.2-0.5,0.3-1.2,0.3-2.1C23.4,1.4,22,0,20,0L20,0z"/>
<g>
	<path class="st4" d="M6.6,32.4c-0.3,0-0.5-0.1-0.7-0.3c-0.4-0.4-0.4-1,0-1.4l5.7-5.7c0.4-0.4,1-0.4,1.4,0s0.4,1,0,1.4l-5.7,5.7
		C7.1,32.3,6.8,32.4,6.6,32.4z"/>
</g>
<g>
	<path class="st2" d="M33.4,32.4c-0.3,0-0.5-0.1-0.7-0.3l-5.7-5.7c-0.4-0.4-0.4-1,0-1.4s1-0.4,1.4,0l5.7,5.7c0.4,0.4,0.4,1,0,1.4
		C33.9,32.3,33.7,32.4,33.4,32.4z"/>
</g>
</svg>
