<?xml version="1.0" encoding="utf-8"?>
<!-- Generator: Adobe Illustrator 19.1.0, SVG Export Plug-In . SVG Version: 6.00 Build 0)  -->
<!DOCTYPE svg PUBLIC "-//W3C//DTD SVG 1.1//EN" "http://www.w3.org/Graphics/SVG/1.1/DTD/svg11.dtd">
<svg version="1.1" id="Layer_1" xmlns="http://www.w3.org/2000/svg" xmlns:xlink="http://www.w3.org/1999/xlink" x="0px" y="0px"
	 width="40px" height="40px" viewBox="0 0 40 40" style="enable-background:new 0 0 40 40;" xml:space="preserve">
<style type="text/css">
	.st0{fill:#4931B1;}
	.st1{fill:#00E0C5;}
	.st2{fill:#009BFF;}
	.st3{fill:#7AE076;}
	.st4{fill:#F6E251;}
</style>
<g>
	<path class="st0" d="M20,7c-0.6,0-1-0.4-1-1V1c0-0.6,0.4-1,1-1s1,0.4,1,1v5C21,6.6,20.6,7,20,7z"/>
</g>
<g>
	<path class="st0" d="M20,40c-0.6,0-1-0.4-1-1v-5c0-0.6,0.4-1,1-1s1,0.4,1,1v5C21,39.6,20.6,40,20,40z"/>
</g>
<g>
	<path class="st1" d="M39,21h-5c-0.6,0-1-0.4-1-1s0.4-1,1-1h5c0.6,0,1,0.4,1,1S39.6,21,39,21z"/>
</g>
<g>
	<path class="st1" d="M6,21H1c-0.6,0-1-0.4-1-1s0.4-1,1-1h5c0.6,0,1,0.4,1,1S6.6,21,6,21z"/>
</g>
<g>
	<path class="st2" d="M29.9,11.1c-0.3,0-0.5-0.1-0.7-0.3c-0.4-0.4-0.4-1,0-1.4l3.5-3.5c0.4-0.4,1-0.4,1.4,0s0.4,1,0,1.4l-3.5,3.5
		C30.4,11,30.2,11.1,29.9,11.1z"/>
</g>
<g>
	<path class="st2" d="M6.6,34.4c-0.3,0-0.5-0.1-0.7-0.3c-0.4-0.4-0.4-1,0-1.4l3.5-3.5c0.4-0.4,1-0.4,1.4,0s0.4,1,0,1.4l-3.5,3.5
		C7.1,34.3,6.8,34.4,6.6,34.4z"/>
</g>
<g>
	<path class="st3" d="M33.4,34.4c-0.3,0-0.5-0.1-0.7-0.3l-3.5-3.5c-0.4-0.4-0.4-1,0-1.4s1-0.4,1.4,0l3.5,3.5c0.4,0.4,0.4,1,0,1.4
		C33.9,34.3,33.7,34.4,33.4,34.4z"/>
</g>
<g>
	<path class="st3" d="M10.1,11.1c-0.3,0-0.5-0.1-0.7-0.3L5.9,7.3c-0.4-0.4-0.4-1,0-1.4s1-0.4,1.4,0l3.5,3.5c0.4,0.4,0.4,1,0,1.4
		C10.6,11,10.4,11.1,10.1,11.1z"/>
</g>
<g>
	<path class="st4" d="M20,30c-0.2,0-0.4,0-0.5-0.1C9.8,24,10,17.7,10,17c0-3.3,2.7-6,6-6c1.5,0,2.9,0.5,4,1.5c1.1-1,2.5-1.5,4-1.5
		c3.3,0,6,2.7,6,6c0,0.7,0.2,7.1-9.5,12.9C20.4,30,20.2,30,20,30z M16,13c-2.2,0-4,1.8-4,4c0,0,0,0.1,0,0.1c0,0.2-0.3,5.5,8,10.7
		c8.4-5.2,8-10.5,8-10.7c0-2.3-1.8-4.1-4-4.1c-1.3,0-2.4,0.6-3.2,1.6c-0.2,0.3-0.5,0.4-0.9,0.4c-0.3,0-0.6-0.2-0.7-0.4
		C18.4,13.6,17.3,13,16,13z"/>
</g>
</svg>
