<svg id="ad49dc1d-ad47-4d81-9731-efb8507040e3" data-name="Layer 1" xmlns="http://www.w3.org/2000/svg" width="40" height="40" viewBox="0 0 40 40">
  <path d="M30.999,40a.99923.99923,0,0,1-.96875-.75732l-3-12a.99963.99963,0,1,1,1.93946-.48536l3,12A.99974.99974,0,0,1,30.999,40Z" style="fill: #7ae076"/>
  <path d="M15,21H6a1,1,0,0,1,0-2h9a1,1,0,0,1,0,2Z" style="fill: #7ae076"/>
  <path d="M28,16a.99974.99974,0,0,1-1-1V11a1,1,0,0,1,2,0v4A.99974.99974,0,0,1,28,16Z" style="fill: #00e0c5"/>
  <path d="M35.3457,40H10a.99875.99875,0,0,1-.97266-.76953l-9-38A.99988.99988,0,0,1,1,0H7a.99974.99974,0,0,1,.9209.61035L18.66309,26H37a.99972.99972,0,0,1,.96973.75732l1.87109,7.48536A4.67344,4.67344,0,0,1,39.05176,38.29,4.57108,4.57108,0,0,1,35.3457,40ZM10.791,38H35.3457a2.61534,2.61534,0,0,0,2.12989-.94092,2.69279,2.69279,0,0,0,.42578-2.33105L36.21875,28H18a.99974.99974,0,0,1-.9209-.61035L6.33691,2H2.26465Z" style="fill: #f6e251"/>
  <path d="M25,12c-.81836,0-8-.084-8-3s7.18164-3,8-3,8,.084,8,3S25.81836,12,25,12ZM19.1709,9A13.0395,13.0395,0,0,0,25,10a13.0395,13.0395,0,0,0,5.8291-1A13.0395,13.0395,0,0,0,25,8,13.0395,13.0395,0,0,0,19.1709,9Zm11.874.1792h0Z" style="fill: #f6e251"/>
  <path d="M25,17c-.81836,0-8-.084-8-3V9a1,1,0,0,1,2,0v4.87207C19.41992,14.28223,21.52246,15,25,15s5.58008-.71777,6-1.12793V9a1,1,0,0,1,2,0v5C33,16.916,25.81836,17,25,17Z" style="fill: #f6e251"/>
</svg>
