<?xml version="1.0" encoding="utf-8"?>
<!-- Generator: Adobe Illustrator 22.0.1, SVG Export Plug-In . SVG Version: 6.00 Build 0)  -->
<svg version="1.1" id="Layer_1" xmlns="http://www.w3.org/2000/svg" xmlns:xlink="http://www.w3.org/1999/xlink" x="0px" y="0px"
	 width="38px" height="40px" viewBox="0 0 38 40" style="enable-background:new 0 0 38 40;" xml:space="preserve">
<style type="text/css">
	.st0{fill:none;}
	.st1{fill:#438FCD;}
	.st2{fill:#59BCB3;}
	.st3{fill:#85C071;}
	.st4{fill:#463F91;}
	.st5{fill:#F4E151;}
</style>
<g>
	<path class="st0" d="M19,11c-3.9,0-7,3.1-7,7c0,1.7,0.9,3.5,0.9,3.6c0.1,0.2,2.6,4.5,3.6,8.4h5c1.1-3.9,3.5-8.3,3.7-8.5
		c0,0,0,0,0,0c0,0,0.9-1.8,0.9-3.5C26,14.1,22.9,11,19,11z"/>
	<polygon class="st0" points="17,38 21,38 21,35.3 17,36.9 	"/>
	<polygon class="st0" points="21,32 17,32 17,34.7 21,33.1 	"/>
	<path class="st1" d="M19,7c0.6,0,1-0.4,1-1V1c0-0.6-0.4-1-1-1s-1,0.4-1,1v5C18,6.6,18.4,7,19,7z"/>
	<path class="st2" d="M37,19h-5c-0.6,0-1,0.4-1,1s0.4,1,1,1h5c0.6,0,1-0.4,1-1S37.6,19,37,19z"/>
	<path class="st3" d="M6,19H1c-0.6,0-1,0.4-1,1s0.4,1,1,1h5c0.6,0,1-0.4,1-1S6.6,19,6,19z"/>
	<path class="st4" d="M33.1,5.9c-0.4-0.4-1-0.4-1.4,0l-3.5,3.5c-0.4,0.4-0.4,1,0,1.4c0.2,0.2,0.5,0.3,0.7,0.3s0.5-0.1,0.7-0.3
		l3.5-3.5C33.5,6.9,33.5,6.2,33.1,5.9z"/>
	<path class="st2" d="M9.8,9.4L6.3,5.9c-0.4-0.4-1-0.4-1.4,0s-0.4,1,0,1.4l3.5,3.5c0.2,0.2,0.5,0.3,0.7,0.3s0.5-0.1,0.7-0.3
		C10.2,10.4,10.2,9.8,9.8,9.4z"/>
	<path class="st5" d="M19,9c-5,0-9,4-9,9c0,2.2,1.1,4.4,1.1,4.5c0,0.1,3.9,6.8,3.9,10.5v2.5l-1.4,0.5c-0.5,0.2-0.8,0.8-0.6,1.3
		c0.2,0.4,0.5,0.6,0.9,0.6c0.1,0,0.2,0,0.4-0.1l0.6-0.3V39c0,0.6,0.4,1,1,1h6c0.6,0,1-0.4,1-1v-4.5l1.4-0.5c0.5-0.2,0.8-0.8,0.6-1.3
		c-0.2-0.5-0.8-0.8-1.3-0.6L23,32.3c0.4-3.8,3.8-9.7,3.9-9.9c0-0.1,1.1-2.2,1.1-4.4C28,13,24,9,19,9z M17,32h4v1.1l-4,1.6V32z
		 M21,38h-4v-1.1l4-1.6V38z M25.1,21.5c-0.1,0.2-2.6,4.6-3.7,8.5h-5c-1.1-3.9-3.5-8.3-3.6-8.4c0,0-0.9-1.8-0.9-3.6c0-3.9,3.1-7,7-7
		s7,3.1,7,7C26,19.7,25.1,21.5,25.1,21.5C25.1,21.5,25.1,21.5,25.1,21.5z"/>
</g>
</svg>
