<svg id="b1025ae0-6fae-4367-811a-3d53b8a1c2b1" data-name="Layer 1" xmlns="http://www.w3.org/2000/svg" width="40" height="40" viewBox="0 0 40 40">
  <path d="M10.67334,22.96875a1.99387,1.99387,0,0,1-.687-.123L3.604,20.50293a2.003,2.003,0,0,1-1.18847-2.56641L6.27393,7.4248A1.99905,1.99905,0,0,1,8.84082,6.2373l6.38232,2.3418a2.00291,2.00291,0,0,1,1.18848,2.56738h0L12.55322,21.6582A2.00437,2.00437,0,0,1,10.67334,22.96875ZM8.15186,8.11426,4.29346,18.626l6.38183,2.34277L14.53271,10.46Zm7.3208,2.6875h0Z" style="fill: #f6e251"/>
  <path d="M16.43945,7.48145a1.996,1.996,0,0,1-.687-.12305L9.37012,5.01562a2.003,2.003,0,0,1-1.18848-2.5664l.419-1.13867A2.00079,2.00079,0,0,1,11.1665.12207l6.38233,2.34277A2.00365,2.00365,0,0,1,18.7373,5.03125l-.418,1.13965A2.00441,2.00441,0,0,1,16.43945,7.48145ZM10.47754,1.999l-.41846,1.13965,6.38281,2.34278.41651-1.13672ZM16.85938,4.3418l.939.34472-.93848-.34472Z" style="fill: #00e0c5"/>
  <path d="M8.38037,29.21777a1.99319,1.99319,0,0,1-.6875-.123L1.31055,26.752a2.00286,2.00286,0,0,1-1.188-2.5664L.54,23.0459a2.00282,2.00282,0,0,1,2.56689-1.1875l6.38233,2.34277a2.003,2.003,0,0,1,1.18847,2.56641h-.00048l-.41846,1.13867a2.0047,2.0047,0,0,1-1.87842,1.31152ZM2.41748,23.73535,2,24.875l6.38184,2.34277.417-1.13672Zm7.32129,2.6875h0Zm-.939-.34473Z" style="fill: #00e0c5"/>
  <path d="M37.15918,28.001a1.99591,1.99591,0,0,1-.688-.123L16.47852,20.53906a2.00106,2.00106,0,0,1-1.1875-2.5664l.83935-2.28809a2.00278,2.00278,0,0,1,2.56641-1.18848L38.68945,21.835a2.00228,2.00228,0,0,1,1.18848,2.56641h0l-.83984,2.28808A2.0068,2.0068,0,0,1,37.15918,28.001ZM18.00781,16.37305l-.83935,2.28906L37.16064,26.001l.83887-2.28614ZM38,23.71191l.939.34473L38,23.71191Z" style="fill: #f6e251"/>
  <path d="M27,37a.99974.99974,0,0,1-1-1V33H5v3a1,1,0,0,1-2,0V33a2.00229,2.00229,0,0,1,2-2H26a2.00229,2.00229,0,0,1,2,2v3A.99974.99974,0,0,1,27,37Z" style="fill: #7ae076"/>
  <g>
    <rect x="1" y="37" width="29" height="2" rx="1" style="fill: #f6e251"/>
    <path d="M29,40H2a2,2,0,0,1,0-4H29a2,2,0,0,1,0,4Zm0-2v0Z" style="fill: #f6e251"/>
  </g>
</svg>
