<?xml version="1.0" encoding="utf-8"?>
<!-- Generator: Adobe Illustrator 22.0.1, SVG Export Plug-In . SVG Version: 6.00 Build 0)  -->
<svg version="1.1" id="Layer_1" xmlns="http://www.w3.org/2000/svg" xmlns:xlink="http://www.w3.org/1999/xlink" x="0px" y="0px"
	 width="40px" height="40px" viewBox="0 0 40 40" style="enable-background:new 0 0 40 40;" xml:space="preserve">
<style type="text/css">
	.st0{fill:#463F91;}
	.st1{fill:#F4E151;}
	.st2{fill:#85C071;}
</style>
<g>
	<path class="st0" d="M24,31c-0.3,0-0.5-0.1-0.7-0.3l-4-4c-0.4-0.4-0.4-1,0-1.4s1-0.4,1.4,0l4,4c0.4,0.4,0.4,1,0,1.4
		C24.5,30.9,24.3,31,24,31z"/>
</g>
<g>
	<path class="st1" d="M33,37c-0.3,0-0.5-0.1-0.7-0.3l-5-5c-0.4-0.4-0.4-1,0-1.4s1-0.4,1.4,0l5,5c0.4,0.4,0.4,1,0,1.4
		C33.5,36.9,33.3,37,33,37z"/>
</g>
<g>
	<path class="st1" d="M36,34c-0.3,0-0.5-0.1-0.7-0.3l-5-5c-0.4-0.4-0.4-1,0-1.4s1-0.4,1.4,0l5,5c0.4,0.4,0.4,1,0,1.4
		C36.5,33.9,36.3,34,36,34z"/>
</g>
<g>
	<path class="st0" d="M25,26c-0.3,0-0.5-0.1-0.7-0.3l-2-2c-0.4-0.4-0.4-1,0-1.4s1-0.4,1.4,0l2,2c0.4,0.4,0.4,1,0,1.4
		C25.5,25.9,25.3,26,25,26z"/>
</g>
<g>
	<path class="st1" d="M36,40c-2.2,0-4-1.8-4-4s1.8-4,4-4s4,1.8,4,4S38.2,40,36,40z M36,34c-1.1,0-2,0.9-2,2s0.9,2,2,2s2-0.9,2-2
		S37.1,34,36,34z"/>
</g>
<g>
	<path class="st0" d="M14,21c-0.3,0-0.5-0.1-0.7-0.3l-13-13C0.1,7.5,0,7.3,0,7V1c0-0.6,0.4-1,1-1h6c0.3,0,0.5,0.1,0.7,0.3l13,13
		c0.4,0.4,0.4,1,0,1.4s-1,0.4-1.4,0L6.6,2H2v4.6l12.7,12.7c0.4,0.4,0.4,1,0,1.4C14.5,20.9,14.3,21,14,21z"/>
</g>
<g>
	<path class="st0" d="M30,25c-0.3,0-0.5-0.1-0.7-0.3l-4-4c-0.4-0.4-0.4-1,0-1.4s1-0.4,1.4,0l4,4c0.4,0.4,0.4,1,0,1.4
		C30.5,24.9,30.3,25,30,25z"/>
</g>
<g>
	<path class="st0" d="M17,18c-0.3,0-0.5-0.1-0.7-0.3l-12-12c-0.4-0.4-0.4-1,0-1.4s1-0.4,1.4,0l12,12c0.4,0.4,0.4,1,0,1.4
		C17.5,17.9,17.3,18,17,18z"/>
</g>
<g>
	<path class="st1" d="M4,34c-0.3,0-0.5-0.1-0.7-0.3c-0.4-0.4-0.4-1,0-1.4l5-5c0.4-0.4,1-0.4,1.4,0s0.4,1,0,1.4l-5,5
		C4.5,33.9,4.3,34,4,34z"/>
</g>
<g>
	<path class="st1" d="M7,37c-0.3,0-0.5-0.1-0.7-0.3c-0.4-0.4-0.4-1,0-1.4l5-5c0.4-0.4,1-0.4,1.4,0s0.4,1,0,1.4l-5,5
		C7.5,36.9,7.3,37,7,37z"/>
</g>
<g>
	<path class="st1" d="M16,31c-0.3,0-0.5-0.1-0.7-0.3c-0.4-0.4-0.4-1,0-1.4L38,6.6V2h-4.6L10.7,24.7c-0.4,0.4-1,0.4-1.4,0
		s-0.4-1,0-1.4l23-23C32.5,0.1,32.7,0,33,0h6c0.6,0,1,0.4,1,1v6c0,0.3-0.1,0.5-0.3,0.7l-23,23C16.5,30.9,16.3,31,16,31z"/>
</g>
<g>
	<path class="st1" d="M15,26c-0.3,0-0.5-0.1-0.7-0.3c-0.4-0.4-0.4-1,0-1.4l20-20c0.4-0.4,1-0.4,1.4,0s0.4,1,0,1.4l-20,20
		C15.5,25.9,15.3,26,15,26z"/>
</g>
<g>
	<path class="st1" d="M4,40c-2.2,0-4-1.8-4-4s1.8-4,4-4s4,1.8,4,4S6.2,40,4,40z M4,34c-1.1,0-2,0.9-2,2s0.9,2,2,2s2-0.9,2-2
		S5.1,34,4,34z"/>
</g>
<g>
	<path class="st2" d="M24,36c-0.3,0-0.5-0.1-0.7-0.3l-2-2c-0.4-0.4-0.4-1,0-1.4l11-11c0.4-0.4,1-0.4,1.4,0l2,2c0.4,0.4,0.4,1,0,1.4
		l-11,11C24.5,35.9,24.3,36,24,36z M23.4,33l0.6,0.6l9.6-9.6L33,23.4L23.4,33z"/>
</g>
<g>
	<path class="st2" d="M16,36c-0.3,0-0.5-0.1-0.7-0.3l-11-11c-0.4-0.4-0.4-1,0-1.4l2-2c0.4-0.4,1-0.4,1.4,0l11,11
		c0.4,0.4,0.4,1,0,1.4l-2,2C16.5,35.9,16.3,36,16,36z M6.4,24l9.6,9.6l0.6-0.6L7,23.4L6.4,24z"/>
</g>
</svg>
