<?xml version="1.0" encoding="utf-8"?>
<!-- Generator: Adobe Illustrator 19.1.0, SVG Export Plug-In . SVG Version: 6.00 Build 0)  -->
<!DOCTYPE svg PUBLIC "-//W3C//DTD SVG 1.1//EN" "http://www.w3.org/Graphics/SVG/1.1/DTD/svg11.dtd">
<svg version="1.1" id="Layer_1" xmlns="http://www.w3.org/2000/svg" xmlns:xlink="http://www.w3.org/1999/xlink" x="0px" y="0px"
	 width="28.9px" height="40px" viewBox="0 0 28.9 40" style="enable-background:new 0 0 28.9 40;" xml:space="preserve">
<style type="text/css">
	.st0{fill:#F6E251;}
	.st1{fill:#7AE076;}
	.st2{fill:#00E0C5;}
	.st3{fill:#4931B1;}
	.st4{fill:#009BFF;}
</style>
<g>
	<path class="st0" d="M14.4,19h-7c-0.6,0-1-0.4-1-1s0.4-1,1-1h7c0.6,0,1,0.4,1,1S15,19,14.4,19z"/>
</g>
<g>
	<path class="st1" d="M14.4,23h-7c-0.6,0-1-0.4-1-1s0.4-1,1-1h7c0.6,0,1,0.4,1,1S15,23,14.4,23z"/>
</g>
<g>
	<path class="st2" d="M14.4,27h-7c-0.6,0-1-0.4-1-1s0.4-1,1-1h7c0.6,0,1,0.4,1,1S15,27,14.4,27z"/>
</g>
<g>
	<path class="st3" d="M14.4,7c-0.6,0-1-0.4-1-1V1c0-0.6,0.4-1,1-1s1,0.4,1,1v5C15.4,6.6,15,7,14.4,7z"/>
</g>
<g>
	<path class="st4" d="M24.3,11.1c-0.3,0-0.5-0.1-0.7-0.3c-0.4-0.4-0.4-1,0-1.4l3.5-3.5c0.4-0.4,1-0.4,1.4,0s0.4,1,0,1.4L25,10.8
		C24.8,11,24.6,11.1,24.3,11.1z"/>
</g>
<g>
	<path class="st1" d="M4.5,11.1c-0.3,0-0.5-0.1-0.7-0.3L0.3,7.3c-0.4-0.4-0.4-1,0-1.4s1-0.4,1.4,0l3.5,3.5c0.4,0.4,0.4,1,0,1.4
		C5,11,4.8,11.1,4.5,11.1z"/>
</g>
<g>
	<path class="st0" d="M16.4,34h-4c-3.9,0-7-3.1-7-7V16c0-3.9,3.1-7,7-7h4c3.9,0,7,3.1,7,7v11C23.4,30.9,20.3,34,16.4,34z M12.4,11
		c-2.8,0-5,2.2-5,5v11c0,2.8,2.2,5,5,5h4c2.8,0,5-2.2,5-5V16c0-2.8-2.2-5-5-5H12.4z"/>
</g>
<g>
	<path class="st0" d="M16.4,40h-4c-0.6,0-1-0.4-1-1v-6c0-0.6,0.4-1,1-1h4c0.6,0,1,0.4,1,1v6C17.4,39.6,17,40,16.4,40z M13.4,38h2v-4
		h-2V38z"/>
</g>
</svg>
