<svg id="b26b52bc-c64a-4832-890c-ce5793d0e7e5" data-name="Layer 1" xmlns="http://www.w3.org/2000/svg" width="40" height="40" viewBox="0 0 40 40">
  <path d="M15.5,40A7.5,7.5,0,1,1,23,32.5,7.5082,7.5082,0,0,1,15.5,40Zm0-13A5.5,5.5,0,1,0,21,32.5,5.50685,5.50685,0,0,0,15.5,27Z" style="fill: #f6e251"/>
  <path d="M22,33a.99943.99943,0,0,1-1-1V1A.99979.99979,0,0,1,22.92773.62793C23.38477,1.76172,25.1123,5,27,5c3.15723,0,4,3.77148,4,6a.99879.99879,0,0,1-.998.999H30a1.00068,1.00068,0,0,1-1-.99707c0-.04-.06641-4.002-2-4.002a5.35979,5.35979,0,0,1-4-2.31836V32A.99943.99943,0,0,1,22,33Z" style="fill: #f6e251"/>
  <path d="M18,11.44434a.99748.99748,0,0,1-.68555-.27149c-7.69531-7.24512-15.30957-.29785-15.63086.001a1,1,0,0,1-1.36914-1.458c.09278-.08691,9.29-8.54492,18.3711,0A1,1,0,0,1,18,11.44434Z" style="fill: #f6e251"/>
  <path d="M18,17a.99747.99747,0,0,1-.68555-.27148c-7.69531-7.24512-15.30957-.29786-15.63086.001a1,1,0,0,1-1.36914-1.458c.09278-.08691,9.29-8.54589,18.3711,0A1,1,0,0,1,18,17Z" style="fill: #7ae076"/>
  <path d="M18,23a.99747.99747,0,0,1-.68555-.27148c-7.69531-7.24414-15.30957-.29786-15.63086.001a1,1,0,0,1-1.36914-1.458c.09278-.08691,9.29-8.54589,18.3711,0A1,1,0,0,1,18,23Z" style="fill: #00e0c5"/>
  <path d="M31.74121,32.11133c-2.71,0-5.23144-1.31153-7.49414-3.89746a1.00007,1.00007,0,1,1,1.50586-1.31641c1.8623,2.12793,3.873,3.21,5.97559,3.21387h.01171c3.62989,0,6.48047-3.1836,6.50879-3.21582a1,1,0,0,1,1.50391,1.31836C39.61328,28.37305,36.29,32.11133,31.74121,32.11133Z" style="fill: #00e0c5"/>
  <path d="M31.74121,26.55566c-2.71,0-5.23144-1.31152-7.49414-3.89746a1.00007,1.00007,0,1,1,1.50586-1.3164c1.8623,2.12793,3.873,3.21,5.97559,3.21386h.01171c3.62989,0,6.48047-3.18359,6.50879-3.21582a1,1,0,0,1,1.50391,1.31836C39.61328,22.81738,36.29,26.55566,31.74121,26.55566Z" style="fill: #009bff"/>
  <path d="M31.74121,20.55566c-2.71,0-5.23144-1.31152-7.49414-3.89746a1.00007,1.00007,0,0,1,1.50586-1.3164c1.8623,2.12793,3.873,3.21,5.97559,3.21386h.01171c3.62989,0,6.48047-3.18359,6.50879-3.21582a1,1,0,0,1,1.50391,1.31836C39.61328,16.81738,36.29,20.55566,31.74121,20.55566Z" style="fill: #4931b1"/>
</svg>
