<svg xmlns="http://www.w3.org/2000/svg" viewBox="0 0 39.77 39.79"><defs><style>.ba700a8c-3446-4bad-9351-f662f070866a{fill:#f6e251;}.b0d741f3-3fb9-4da4-a284-b28215d3f47d{fill:#00e0c5;}.a224e2b7-e9aa-44ed-a98a-3d0f8f64caf1{fill:#009bff;}.e9634c81-f83e-4e30-abf2-4239f830430c{fill:#7ae076;}</style></defs><title>Asset 4</title><g id="a4918313-5b54-405b-b131-80533c3dc949" data-name="Layer 2"><g id="ff0f788f-bbf8-4118-a174-10bbc6d549e7" data-name="Layer 1"><path class="ba700a8c-3446-4bad-9351-f662f070866a" d="M7.78,30a1,1,0,0,1-.71-.29L4.19,26.87a1,1,0,0,1-.29-.71L4,9.92A1,1,0,0,1,4.59,9a1,1,0,0,1,1.07.16l7.28,6.38a1,1,0,0,1,.29,1.09L8.72,29.38A1,1,0,0,1,8,30,.82.82,0,0,1,7.78,30ZM5.9,25.75l1.46,1.47,3.76-10.61L6,12.12Z"/><path class="ba700a8c-3446-4bad-9351-f662f070866a" d="M18.83,28.78a1,1,0,0,1-.34-.06,1,1,0,0,1-.66-.85l-.52-5.76L1.55,8.21A5.12,5.12,0,0,1,0,4.74,4.56,4.56,0,0,1,1.33,1.33a4.85,4.85,0,0,1,6.84.17L22.11,17.31l5.76.52a1,1,0,0,1,.85.65,1,1,0,0,1-.23,1.05l-9,9A1,1,0,0,1,18.83,28.78ZM4.6,2a2.64,2.64,0,0,0-1.86.75A2.62,2.62,0,0,0,2,4.68a3.08,3.08,0,0,0,.92,2.07l16,14.12a1,1,0,0,1,.33.66l.37,4,5.94-5.93-4-.37a1,1,0,0,1-.65-.33L6.71,2.87A3,3,0,0,0,4.6,2Z"/><path class="ba700a8c-3446-4bad-9351-f662f070866a" d="M16.3,13.29a1,1,0,0,1-.75-.34L9.16,5.66A1,1,0,0,1,9,4.59,1,1,0,0,1,9.91,4l16.25-.1a1.1,1.1,0,0,1,.71.29l2.89,2.88A1,1,0,0,1,30,8a1,1,0,0,1-.65.72L16.64,13.23A1,1,0,0,1,16.3,13.29ZM12.11,6l4.5,5.13L27.22,7.37,25.76,5.9Z"/><path class="b0d741f3-3fb9-4da4-a284-b28215d3f47d" d="M38.77,39.79a1,1,0,0,1-.71-.3L25.39,26.82a1,1,0,0,1,1.41-1.41L39.47,38.08a1,1,0,0,1,0,1.41A1,1,0,0,1,38.77,39.79Z"/><path class="a224e2b7-e9aa-44ed-a98a-3d0f8f64caf1" d="M31.79,39.7a1,1,0,0,1-.71-.29l-9.14-9.14a1,1,0,0,1,1.41-1.41L32.49,38a1,1,0,0,1,0,1.41A1,1,0,0,1,31.79,39.7Z"/><path class="e9634c81-f83e-4e30-abf2-4239f830430c" d="M38.53,33a1,1,0,0,1-.71-.29l-9.14-9.14a1,1,0,0,1,1.42-1.42l9.14,9.14a1,1,0,0,1,0,1.42A1,1,0,0,1,38.53,33Z"/></g></g></svg>