<?xml version="1.0" encoding="utf-8"?>
<!-- Generator: Adobe Illustrator 19.1.0, SVG Export Plug-In . SVG Version: 6.00 Build 0)  -->
<!DOCTYPE svg PUBLIC "-//W3C//DTD SVG 1.1//EN" "http://www.w3.org/Graphics/SVG/1.1/DTD/svg11.dtd">
<svg version="1.1" id="Layer_1" xmlns="http://www.w3.org/2000/svg" xmlns:xlink="http://www.w3.org/1999/xlink" x="0px" y="0px"
	 width="31.1px" height="39.9px" viewBox="0 0 31.1 39.9" style="enable-background:new 0 0 31.1 39.9;" xml:space="preserve">
<style type="text/css">
	.st0{fill:#F6E251;}
	.st1{fill:#4931B1;}
	.st2{fill:#009BFF;}
	.st3{fill:#00E0C5;}
</style>
<g>
	<g>
		<path class="st0" d="M15.5,23.3c-0.5,0-1-0.1-1.4-0.3c-2.5-1-5.6-2.6-6-4l-0.2-0.7c0,0,0,0,0,0L4.6,5.2L3.9,2.6
			C3.7,1.9,3.8,1.3,4.2,0.8C4.6,0.3,5.2,0,5.9,0h19.3c0.7,0,1.3,0.3,1.7,0.8c0.4,0.5,0.5,1.1,0.3,1.8l-0.8,2.6l-3.5,13.9
			c-0.5,1.5-3.5,3-6,3.9C16.5,23.2,16,23.3,15.5,23.3z M9.9,17.8l0.2,0.7c0.3,0.5,2.5,1.7,4.8,2.6c0.4,0.2,0.9,0.2,1.3,0
			c2.7-1.1,4.6-2.2,4.8-2.7l0.2-0.6l3.3-13.1L25.3,2c0,0,0,0-0.1,0H5.9C5.8,2,5.8,2,5.8,2l0.8,2.6L9.9,17.8z"/>
	</g>
	<g>
		<path class="st0" d="M26.1,18.5h-3.6c-0.6,0-1-0.4-1-1s0.4-1,1-1h3.6c0,0,0.1-0.1,0.2-0.1L29,6.2h-3.4c-0.6,0-1-0.4-1-1s0.4-1,1-1
			h3.9c0.6,0,1.1,0.2,1.4,0.7c0.3,0.4,0.4,0.9,0.2,1.4L28.2,17C27.9,17.9,27,18.5,26.1,18.5z"/>
	</g>
	<g>
		<path class="st0" d="M8.6,18.3H5c-0.9,0-1.8-0.6-2.1-1.5L0.1,6C-0.1,5.6,0,5,0.3,4.6C0.6,4.2,1.1,4,1.7,4h3.9c0.6,0,1,0.4,1,1
			s-0.4,1-1,1H2.1l2.7,10.3c0,0,0.1,0.1,0.2,0.1h3.6c0.6,0,1,0.4,1,1S9.1,18.3,8.6,18.3z"/>
	</g>
	<g>
		<path class="st0" d="M27,8.1"/>
	</g>
</g>
<g>
	<path class="st1" d="M24.6,34H6.5c-0.6,0-1-0.4-1-1s0.4-1,1-1h18.1c0.6,0,1,0.4,1,1S25.1,34,24.6,34z"/>
</g>
<g>
	<path class="st2" d="M24.6,37.1H6.5c-0.6,0-1-0.4-1-1s0.4-1,1-1h18.1c0.6,0,1,0.4,1,1S25.1,37.1,24.6,37.1z"/>
</g>
<g>
	<path class="st3" d="M24.6,39.9H6.5c-0.6,0-1-0.4-1-1s0.4-1,1-1h18.1c0.6,0,1,0.4,1,1S25.1,39.9,24.6,39.9z"/>
</g>
<g>
	<path class="st0" d="M24,31.1H7.1c-0.6,0-1.1-0.3-1.4-0.7c-0.3-0.5-0.3-1-0.1-1.6c0,0,0-0.1,0-0.1l1.8-3.2C7.8,24.6,8.7,24,9.7,24
		h11.8c0.9,0,1.9,0.6,2.3,1.5l1.8,3.2c0,0,0,0.1,0,0.1c0.2,0.6,0.2,1.1-0.1,1.6C25.1,30.8,24.6,31.1,24,31.1z M7.7,29.1h15.7
		l-1.5-2.7c0,0,0-0.1,0-0.1c-0.1-0.1-0.3-0.3-0.4-0.3H9.7c-0.1,0-0.4,0.2-0.4,0.3c0,0,0,0.1,0,0.1L7.7,29.1z"/>
</g>
</svg>
