<svg id="e957d6d6-6a2a-4ed6-8402-69b323662308" data-name="Layer 1" xmlns="http://www.w3.org/2000/svg" width="40" height="40" viewBox="0 0 40 40">
  <path d="M12,40a12,12,0,0,1,0-24,1,1,0,0,1,0,2A10,10,0,1,0,22,28a1,1,0,0,1,2,0A12.01343,12.01343,0,0,1,12,40Z" style="fill: #f6e251"/>
  <path d="M23.001,29a1,1,0,0,1-.44825-1.89453L38,19.38184V16.07715L12.07373,17.99707a.99979.99979,0,1,1-.14746-1.99414l27-2A1,1,0,0,1,40,15v5a1.0004,1.0004,0,0,1-.55273.89453l-16,8A1.0026,1.0026,0,0,1,23.001,29Z" style="fill: #f6e251"/>
  <path d="M12,34a6,6,0,1,1,6-6A6.00657,6.00657,0,0,1,12,34Zm0-10a4,4,0,1,0,4,4A4.00427,4.00427,0,0,0,12,24Z" style="fill: #4931b1"/>
  <path d="M20,11a.99974.99974,0,0,1-1-1V1a1,1,0,0,1,2,0v9A.99974.99974,0,0,1,20,11Z" style="fill: #7ae076"/>
  <path d="M27.07129,13.92871a1,1,0,0,1-.707-1.707L32.728,5.8584a.99989.99989,0,1,1,1.41406,1.41406l-6.36377,6.36328A.99676.99676,0,0,1,27.07129,13.92871Z" style="fill: #00e0c5"/>
  <path d="M12.92871,13.92871a.99676.99676,0,0,1-.707-.293L5.85791,7.27246A.99989.99989,0,1,1,7.272,5.8584l6.36377,6.36328a1,1,0,0,1-.707,1.707Z" style="fill: #f6e251"/>
</svg>
