<svg id="bfad6065-e381-4411-9004-bbc605194a4a" data-name="Layer 1" xmlns="http://www.w3.org/2000/svg" width="40" height="40" viewBox="0 0 40 40">
  <path d="M38.5498,16.66113a.99676.99676,0,0,1-.707-.293L23.63184,2.15723A.99989.99989,0,0,1,25.0459.74316L39.25684,14.9541a1,1,0,0,1-.707,1.707Z" style="fill: #009bff"/>
  <path d="M15.88574,39.3252a.99676.99676,0,0,1-.707-.293L.96777,24.82129a.99989.99989,0,0,1,1.41407-1.41406L16.59277,37.61816a1,1,0,0,1-.707,1.707Z" style="fill: #009bff"/>
  <path d="M13.31348,27.68652a1,1,0,0,1-.707-1.707L26.2041,12.38184a.99989.99989,0,0,1,1.41406,1.41406L14.02051,27.39355A.99672.99672,0,0,1,13.31348,27.68652Z" style="fill: #f6e251"/>
  <path d="M27.96191,18.53809a.99678.99678,0,0,1-.707-.293l-5.46582-5.46485a.99989.99989,0,0,1,1.41406-1.41406L28.669,16.83105a1,1,0,0,1-.707,1.707Z" style="fill: #00e0c5"/>
  <path d="M22.8623,23.6377a.9968.9968,0,0,1-.707-.293l-5.46582-5.46582a.9999.9999,0,1,1,1.41407-1.41407l5.46582,5.46582a1,1,0,0,1-.707,1.707Z" style="fill: #7ae076"/>
  <path d="M17.7627,28.7373a.99679.99679,0,0,1-.707-.293l-5.46582-5.46582a.9999.9999,0,1,1,1.41407-1.41407l5.46582,5.46582a1,1,0,0,1-.707,1.707Z" style="fill: #f6e251"/>
  <path d="M12.72656,39.86328a26.31083,26.31083,0,0,1-10.15429-1.959,1.00784,1.00784,0,0,1-.47657-.47657A26.5327,26.5327,0,0,1,8.32324,8.2627,26.67938,26.67938,0,0,1,37.53418,1.98438a.99459.99459,0,0,1,.48144.48144A26.67933,26.67933,0,0,1,31.7373,31.67676,26.26893,26.26893,0,0,1,12.72656,39.86328Zm-8.96484-3.625a24.68016,24.68016,0,0,0,8.45019,1.66016c6.81153.15527,12.90332-2.42774,18.11133-7.63574C41.83789,18.74805,37.294,5.92969,36.35059,3.64941,34.06738,2.70508,21.251-1.83789,9.7373,9.67676c-5.208,5.208-7.77636,11.30176-7.63574,18.11133A24.68016,24.68016,0,0,0,3.76172,36.23828Z" style="fill: #f6e251"/>
</svg>
