<svg id="b9f6942e-02b9-4a0e-a45c-0e730ff10d49" data-name="Layer 1" xmlns="http://www.w3.org/2000/svg" width="40" height="40" viewBox="0 0 40 40">
  <path d="M20,40A20,20,0,0,1,20,0a19.79521,19.79521,0,0,1,8.69531,2.00928A.99966.99966,0,0,1,28.97852,3.604,5.24662,5.24662,0,0,0,27.833,9.09424,1,1,0,1,1,25.96,9.79541a7.24952,7.24952,0,0,1,.71387-6.49609A17.7287,17.7287,0,0,0,20,2,18,18,0,1,0,38,20a17.73408,17.73408,0,0,0-1.29883-6.67383,7.38233,7.38233,0,0,1-7.72168.1167,1.00013,1.00013,0,0,1,1.041-1.708,5.2426,5.2426,0,0,0,6.375-.71338,1.00129,1.00129,0,0,1,1.5957.28321A19.79835,19.79835,0,0,1,40,20,20.0226,20.0226,0,0,1,20,40Z" style="fill: #f6e251"/>
  <path d="M13,9a2,2,0,1,1-2,2,2,2,0,0,1,2-2m0-2a4,4,0,1,0,4,4,4.00453,4.00453,0,0,0-4-4Z" style="fill: #f6e251"/>
  <path d="M8,18a2,2,0,1,1-2,2,2,2,0,0,1,2-2m0-2a4,4,0,1,0,4,4,4.00453,4.00453,0,0,0-4-4Z" style="fill: #7ae076"/>
  <path d="M13,27a2,2,0,1,1-2,2,2,2,0,0,1,2-2m0-2a4,4,0,1,0,4,4,4.00453,4.00453,0,0,0-4-4Z" style="fill: #00e0c5"/>
  <path d="M23,29a2,2,0,1,1-2,2,2,2,0,0,1,2-2m0-2a4,4,0,1,0,4,4,4.00453,4.00453,0,0,0-4-4Z" style="fill: #009bff"/>
  <path d="M30,22a2,2,0,1,1-2,2,2,2,0,0,1,2-2m0-2a4,4,0,1,0,4,4,4.00453,4.00453,0,0,0-4-4Z" style="fill: #4931b1"/>
  <path d="M25,18a.99891.99891,0,0,1-.707-.293l-3-3a.9994.9994,0,0,1,.09961-1.50146l17-13a1.00019,1.00019,0,0,1,1.36035,1.45312l-14,16a1.00323,1.00323,0,0,1-.71973.34082Zm-1.48535-3.89941,1.43652,1.43652,6.7041-7.66162Z" style="fill: #00e0c5"/>
  <path d="M18.84473,23.12207A5.51192,5.51192,0,0,1,15.375,21.78076,1.0002,1.0002,0,0,1,16,20a1.87748,1.87748,0,0,0,1.998-1.898,4.7485,4.7485,0,0,1,.68554-3.71582A3.96225,3.96225,0,0,1,22,13a1,1,0,0,1,0,2,2.10427,2.10427,0,0,0-1.74023.6167,2.99764,2.99764,0,0,0-.29,2.14062A.97242.97242,0,0,1,20,18a3.77087,3.77087,0,0,1-1.40527,3.10742,2.84931,2.84931,0,0,0,.87793-.05517c2.18457-.47705,4.085-3.41065,4.63379-4.50049a.9999.9999,0,0,1,1.78808.89551c-.09765.19433-2.42383,4.77441-5.98926,5.55761A4.928,4.928,0,0,1,18.84473,23.12207Z" style="fill: #00e0c5"/>
</svg>
