<?xml version="1.0" encoding="utf-8"?>
<!-- Generator: Adobe Illustrator 22.0.1, SVG Export Plug-In . SVG Version: 6.00 Build 0)  -->
<svg version="1.1" id="Layer_1" xmlns="http://www.w3.org/2000/svg" xmlns:xlink="http://www.w3.org/1999/xlink" x="0px" y="0px"
	 width="40px" height="40px" viewBox="0 0 40 40" style="enable-background:new 0 0 40 40;" xml:space="preserve">
<style type="text/css">
	.st0{fill:#F4E151;}
	.st1{fill:#463F91;}
	.st2{fill:#438FCD;}
	.st3{fill:#59BCB3;}
	.st4{fill:#85C071;}
</style>
<g>
	<g>
		<path class="st0" d="M20,40c-0.1,0-0.3,0-0.4-0.1l-19-8C0.2,31.8,0,31.4,0,31V1c0-0.3,0.2-0.7,0.5-0.8c0.3-0.2,0.7-0.2,1-0.1l19,9
			C20.8,9.3,21,9.6,21,10v29c0,0.3-0.2,0.6-0.4,0.8C20.4,39.9,20.2,40,20,40z M2,30.3l17,7.2V10.6L2,2.6V30.3z"/>
	</g>
	<g>
		<path class="st0" d="M20,40c-0.2,0-0.4-0.1-0.6-0.2C19.2,39.6,19,39.3,19,39V10c0-0.4,0.2-0.7,0.6-0.9l19-9c0.3-0.1,0.7-0.1,1,0.1
			C39.8,0.3,40,0.7,40,1v30c0,0.4-0.2,0.8-0.6,0.9l-19,8C20.3,40,20.1,40,20,40z M21,10.6v26.9l17-7.2V2.6L21,10.6z"/>
	</g>
	<g>
		<path class="st1" d="M24,16c-0.4,0-0.7-0.2-0.9-0.6c-0.2-0.5,0-1.1,0.5-1.3l11-5c0.5-0.2,1.1,0,1.3,0.5c0.2,0.5,0,1.1-0.5,1.3
			l-11,5C24.3,16,24.1,16,24,16z"/>
	</g>
	<g>
		<path class="st2" d="M24,21c-0.4,0-0.7-0.2-0.9-0.6c-0.2-0.5,0-1.1,0.5-1.3l11-5c0.5-0.2,1.1,0,1.3,0.5c0.2,0.5,0,1.1-0.5,1.3
			l-11,5C24.3,21,24.1,21,24,21z"/>
	</g>
	<g>
		<path class="st3" d="M24,26c-0.4,0-0.7-0.2-0.9-0.6c-0.2-0.5,0-1.1,0.5-1.3l11-5c0.5-0.2,1.1,0,1.3,0.5c0.2,0.5,0,1.1-0.5,1.3
			l-11,5C24.3,26,24.1,26,24,26z"/>
	</g>
	<g>
		<path class="st4" d="M24,31c-0.4,0-0.7-0.2-0.9-0.6c-0.2-0.5,0-1.1,0.5-1.3l11-5c0.5-0.2,1.1,0,1.3,0.5c0.2,0.5,0,1.1-0.5,1.3
			l-11,5C24.3,31,24.1,31,24,31z"/>
	</g>
	<g>
		<path class="st4" d="M16,16c-0.1,0-0.3,0-0.4-0.1l-11-5c-0.5-0.2-0.7-0.8-0.5-1.3c0.2-0.5,0.8-0.7,1.3-0.5l11,5
			c0.5,0.2,0.7,0.8,0.5,1.3C16.7,15.8,16.4,16,16,16z"/>
	</g>
	<g>
		<path class="st3" d="M16,21c-0.1,0-0.3,0-0.4-0.1l-11-5c-0.5-0.2-0.7-0.8-0.5-1.3c0.2-0.5,0.8-0.7,1.3-0.5l11,5
			c0.5,0.2,0.7,0.8,0.5,1.3C16.7,20.8,16.4,21,16,21z"/>
	</g>
	<g>
		<path class="st2" d="M16,26c-0.1,0-0.3,0-0.4-0.1l-11-5c-0.5-0.2-0.7-0.8-0.5-1.3c0.2-0.5,0.8-0.7,1.3-0.5l11,5
			c0.5,0.2,0.7,0.8,0.5,1.3C16.7,25.8,16.4,26,16,26z"/>
	</g>
	<g>
		<path class="st1" d="M16,31c-0.1,0-0.3,0-0.4-0.1l-11-5c-0.5-0.2-0.7-0.8-0.5-1.3c0.2-0.5,0.8-0.7,1.3-0.5l11,5
			c0.5,0.2,0.7,0.8,0.5,1.3C16.7,30.8,16.4,31,16,31z"/>
	</g>
</g>
</svg>
