<svg id="a65faaec-b156-4979-afff-10e8a68d07f5" data-name="Layer 1" xmlns="http://www.w3.org/2000/svg" width="40" height="40" viewBox="0 0 40 40">
  <path d="M20.93408,32h-2a1.00123,1.00123,0,0,1-.92871-.62842l-2-5A1.00033,1.00033,0,0,1,16.93408,25h6a1.00032,1.00032,0,0,1,.92871,1.37158l-2,5A1.00123,1.00123,0,0,1,20.93408,32Zm-1.32275-2h.64551L21.457,27h-3.0459Z" style="fill: #009bff"/>
  <path d="M16.93506,40a.99974.99974,0,0,1-.97119-1.24268l2-8a1.00011,1.00011,0,0,1,1.94043.48536l-2,8A1.00063,1.00063,0,0,1,16.93506,40Z" style="fill: #009bff"/>
  <path d="M22.93359,39.00049a1.00078,1.00078,0,0,1-.96093-.72559l-2-7a1,1,0,1,1,1.92285-.5498l2,7a1.00165,1.00165,0,0,1-.96192,1.27539Z" style="fill: #009bff"/>
  <path d="M14.93408,32a.99957.99957,0,0,1-.707-.293l-4-4A.99989.99989,0,0,1,11.64111,26.293l2.92774,2.92773,1.09521-2.73779-3.17724-1.58838a1.00011,1.00011,0,1,1,.89453-1.78906l4,2a1.00068,1.00068,0,0,1,.48144,1.26611l-2,5A1.0011,1.0011,0,0,1,14.93408,32Z" style="fill: #f6e251"/>
  <path d="M24.93408,32a1.0011,1.0011,0,0,1-.92871-.62842l-2-5a1.00067,1.00067,0,0,1,.48145-1.26611l4-2a1.00011,1.00011,0,0,1,.89453,1.78906L24.2041,26.48291l1.09522,2.73779L28.22705,26.293A.99989.99989,0,1,1,29.64111,27.707l-4,4A.99955.99955,0,0,1,24.93408,32Z" style="fill: #f6e251"/>
  <path d="M20.023,20.0083a7.01845,7.01845,0,0,1-4.73-2.03125.99989.99989,0,0,1,1.41211-1.416,4.33354,4.33354,0,0,0,6.37353.002A.99989.99989,0,1,1,24.49268,17.977,6.22574,6.22574,0,0,1,20.023,20.0083Z" style="fill: #00e0c5"/>
  <path d="M37.72705,40H2.207a1,1,0,0,1,0-2H36.96826c.14453-.99121.0166-3.17285-2.87646-5.82324-1.104-1.01123-2.19336-1.91211-3.1543-2.707-3.13672-2.59571-5.61426-4.64551-4.54541-7.501,1.10059-2.93994,4.36475-12.86426.15137-17.14893a9.16467,9.16467,0,0,0-6.57569-2.78076h-.04589a9.17089,9.17089,0,0,0-6.59717,2.84766A.99972.99972,0,1,1,11.88525,3.499,11.14794,11.14794,0,0,1,19.91211.03955a11.02118,11.02118,0,0,1,8.05713,3.37793c4.90576,4.98828,1.84131,15.12549.2959,19.25244-.54395,1.45362.97949,2.80274,3.94726,5.25879.97949.81006,2.08887,1.728,3.23,2.77344,5.04932,4.625,3.2666,8.561,3.18848,8.72607A1.00055,1.00055,0,0,1,37.72705,40Z" style="fill: #f6e251"/>
  <path d="M2.19873,39.95508a.98681.98681,0,0,1-.89307-.56153c-.07861-.16357-1.8667-4.064,3.186-8.6914,1.12207-1.02783,2.21582-1.937,3.18066-2.73877,3.00342-2.49609,4.54541-3.8667,3.99659-5.333-1.54493-4.127-4.60889-14.26416.29589-19.25244a11.16778,11.16778,0,0,1,16.084.082.99972.99972,0,1,1-1.43945,1.3877A9.1709,9.1709,0,0,0,20.01221,2h-.04639a9.16391,9.16391,0,0,0-6.5752,2.78027c-4.21289,4.28467-.94921,14.209.15137,17.14893,1.07276,2.86572-1.42676,4.94287-4.59179,7.57275-.94727.78711-2.021,1.67969-3.10791,2.67481-3.89649,3.56933-2.77686,6.25293-2.72706,6.36572a1.00334,1.00334,0,0,1-.9165,1.4126Z" style="fill: #f6e251"/>
</svg>
