<?xml version="1.0" encoding="utf-8"?>
<!-- Generator: Adobe Illustrator 19.1.0, SVG Export Plug-In . SVG Version: 6.00 Build 0)  -->
<!DOCTYPE svg PUBLIC "-//W3C//DTD SVG 1.1//EN" "http://www.w3.org/Graphics/SVG/1.1/DTD/svg11.dtd">
<svg version="1.1" id="Layer_1" xmlns="http://www.w3.org/2000/svg" xmlns:xlink="http://www.w3.org/1999/xlink" x="0px" y="0px"
	 width="40px" height="40px" viewBox="0 0 40 40" style="enable-background:new 0 0 40 40;" xml:space="preserve">
<style type="text/css">
	.st0{fill:#009BFF;}
	.st1{fill:#7AE076;}
	.st2{fill:#00E0C5;}
	.st3{fill:#4931B1;}
	.st4{fill:#F6E251;}
</style>
<g>
	<path class="st0" d="M3.7,7.4c-1,0-1.9-0.4-2.6-1.1c-1.4-1.4-1.4-3.8,0-5.3c1.4-1.4,3.8-1.4,5.3,0c1.4,1.4,1.4,3.8,0,5.3
		C5.6,7.1,4.7,7.4,3.7,7.4z M3.7,2C3.3,2,2.8,2.2,2.5,2.5c-0.7,0.7-0.7,1.8,0,2.4c0.7,0.7,1.8,0.7,2.4,0s0.7-1.8,0-2.4
		C4.6,2.2,4.2,2,3.7,2z"/>
</g>
<g>
	<path class="st0" d="M6.6,17.2c-0.6,0-1-0.4-1-1v-5.8c0-0.3,0.1-0.5,0.3-0.7l3.8-3.8c0.2-0.2,0.4-0.3,0.7-0.3h5.8c0.6,0,1,0.4,1,1
		s-0.4,1-1,1h-5.3l-3.3,3.3v5.3C7.6,16.7,7.1,17.2,6.6,17.2z"/>
</g>
<g>
	<path class="st1" d="M36.3,40c-1,0-1.9-0.4-2.6-1.1c-1.4-1.4-1.4-3.8,0-5.3c1.4-1.4,3.8-1.4,5.3,0c1.4,1.4,1.4,3.8,0,5.3
		C38.2,39.7,37.3,40,36.3,40z M36.3,34.6c-0.4,0-0.9,0.2-1.2,0.5c-0.7,0.7-0.7,1.8,0,2.4s1.8,0.7,2.4,0c0.7-0.7,0.7-1.8,0-2.4
		C37.2,34.8,36.8,34.6,36.3,34.6z"/>
</g>
<g>
	<path class="st1" d="M29.6,34.4h-5.8c-0.6,0-1-0.4-1-1s0.4-1,1-1h5.3l3.3-3.3v-5.3c0-0.6,0.4-1,1-1s1,0.4,1,1v5.8
		c0,0.3-0.1,0.5-0.3,0.7l-3.8,3.8C30.1,34.3,29.9,34.4,29.6,34.4z"/>
</g>
<g>
	<path class="st2" d="M36.3,7.4c-1,0-1.9-0.4-2.6-1.1c-1.4-1.4-1.4-3.8,0-5.3c1.4-1.4,3.8-1.4,5.3,0c1.4,1.4,1.4,3.8,0,5.3
		C38.2,7.1,37.3,7.4,36.3,7.4z M36.3,2c-0.4,0-0.9,0.2-1.2,0.5c-0.7,0.7-0.7,1.8,0,2.4s1.8,0.7,2.4,0c0.7-0.7,0.7-1.8,0-2.4
		C37.2,2.2,36.8,2,36.3,2z"/>
</g>
<g>
	<path class="st2" d="M33.4,17.2c-0.6,0-1-0.4-1-1v-5.3l-3.3-3.3h-5.3c-0.6,0-1-0.4-1-1s0.4-1,1-1h5.8c0.3,0,0.5,0.1,0.7,0.3
		l3.8,3.8c0.2,0.2,0.3,0.4,0.3,0.7v5.8C34.4,16.7,34,17.2,33.4,17.2z"/>
</g>
<g>
	<path class="st3" d="M3.7,40c-1,0-1.9-0.4-2.6-1.1c-1.4-1.4-1.4-3.8,0-5.3c1.4-1.4,3.8-1.4,5.3,0c1.4,1.4,1.4,3.8,0,5.3
		C5.6,39.7,4.7,40,3.7,40z M3.7,34.6c-0.4,0-0.9,0.2-1.2,0.5c-0.7,0.7-0.7,1.8,0,2.4c0.7,0.7,1.8,0.7,2.4,0s0.7-1.8,0-2.4
		C4.6,34.8,4.2,34.6,3.7,34.6z"/>
</g>
<g>
	<path class="st3" d="M16.2,34.4h-5.8c-0.3,0-0.5-0.1-0.7-0.3l-3.8-3.8c-0.2-0.2-0.3-0.4-0.3-0.7v-5.8c0-0.6,0.4-1,1-1s1,0.4,1,1
		v5.3l3.3,3.3h5.3c0.6,0,1,0.4,1,1S16.7,34.4,16.2,34.4z"/>
</g>
<g>
	<path class="st4" d="M26.7,29.7H13.3c-0.3,0-0.5-0.1-0.7-0.3l-1.9-1.9c-0.2-0.2-0.3-0.4-0.3-0.7V13.3c0-0.3,0.1-0.5,0.3-0.7
		l1.9-1.9c0.2-0.2,0.4-0.3,0.7-0.3h13.4c0.3,0,0.5,0.1,0.7,0.3c0.7,0.7,1.5,1.6,1.7,1.8c0.3,0.2,0.5,0.5,0.5,0.8v13.4
		c0,0.3-0.1,0.5-0.3,0.7c-0.8,0.7-1.6,1.6-1.8,1.8C27.4,29.5,27.1,29.7,26.7,29.7z M13.7,27.7h12.6c0.3-0.3,0.7-0.7,1.3-1.3V13.8
		c-0.3-0.3-0.7-0.7-1.3-1.4H13.7l-1.3,1.3v12.6L13.7,27.7z"/>
</g>
</svg>
