<svg id="a9f0ae60-b4f6-421e-a3c3-b096043992b9" data-name="Layer 1" xmlns="http://www.w3.org/2000/svg" width="40" height="40" viewBox="0 0 40 40">
  <path d="M6.5,13A6.5,6.5,0,1,1,13,6.5,6.50753,6.50753,0,0,1,6.5,13Zm0-11A4.5,4.5,0,1,0,11,6.5,4.50491,4.50491,0,0,0,6.5,2Z" style="fill: #00e0c5"/>
  <path d="M2.57129,10.64307a1,1,0,1,1,0-2c5.86475,0,6.06787-5.45313,6.07178-6.07471a1.00132,1.00132,0,0,1,1-.99561H9.646a.99881.99881,0,0,1,.99707.99854C10.64307,5.36328,8.95605,10.64307,2.57129,10.64307Z" style="fill: #00e0c5"/>
  <path d="M31,13a1,1,0,0,1-.71533-1.69873l7.4165-7.58838a.99993.99993,0,1,0-1.40576-1.42236l-7.59668,7.4248a1,1,0,0,1-1.39746-1.43066L34.88965.86816a2.99969,2.99969,0,0,1,4.23389,4.25049l-7.40821,7.58008A.99716.99716,0,0,1,31,13Z" style="fill: #009bff"/>
  <path d="M25.85912,8.87294l5.26793,5.268L7.26551,38.00243l-5.26793-5.268L25.85386,8.876l.00526-.00058V8.87294m0-1.99757a1.99385,1.99385,0,0,0-1.41422.58336L.58336,31.32027a2.00588,2.00588,0,0,0,0,2.82843l5.268,5.26794a2.00587,2.00587,0,0,0,2.82841,0L32.54126,15.5551a2.00588,2.00588,0,0,0,0-2.82843L27.27332,7.45873a1.9938,1.9938,0,0,0-1.4142-.58336Z" style="fill: #f6e251"/>
  <path d="M8,35a1,1,0,0,1-.707-1.707l19-19A.99989.99989,0,0,1,27.707,15.707l-19,19A.99676.99676,0,0,1,8,35Z" style="fill: #f6e251"/>
</svg>
