<?xml version="1.0" encoding="utf-8"?>
<!-- Generator: Adobe Illustrator 19.1.0, SVG Export Plug-In . SVG Version: 6.00 Build 0)  -->
<!DOCTYPE svg PUBLIC "-//W3C//DTD SVG 1.1//EN" "http://www.w3.org/Graphics/SVG/1.1/DTD/svg11.dtd">
<svg version="1.1" id="Layer_1" xmlns="http://www.w3.org/2000/svg" xmlns:xlink="http://www.w3.org/1999/xlink" x="0px" y="0px"
	 width="40px" height="41px" viewBox="0 0 40 41" style="enable-background:new 0 0 40 41;" xml:space="preserve">
<style type="text/css">
	.st0{fill:#7AE076;}
	.st1{fill:#F6E251;}
	.st2{fill:#4931B1;}
	.st3{fill:#009BFF;}
	.st4{fill:#00E0C5;}
</style>
<g>
	<path class="st0" d="M28.2,37H11.8c-0.6,0-1-0.4-1-1s0.4-1,1-1h15.4c-0.1-0.4-0.4-1-1.1-1.6c-0.5-0.4-1-0.8-1.4-1.2
		c-1.5-1.2-2.9-2.3-2.3-4c1-2.5,1.5-5.7,0.2-7.1c-1.5-1.5-3.9-1.4-5.3,0c-0.4,0.4-1,0.4-1.4,0c-0.4-0.4-0.4-1,0-1.4
		c2.2-2.3,5.9-2.3,8.1,0c2.5,2.5,1,7.3,0.3,9.2c-0.1,0.3,0.8,1.1,1.6,1.7c0.5,0.4,1,0.8,1.5,1.3c2.6,2.3,1.6,4.5,1.6,4.6
		C28.9,36.8,28.5,37,28.2,37z"/>
</g>
<g>
	<path class="st0" d="M11.8,37c-0.4,0-0.7-0.2-0.9-0.5c0-0.1-1-2.2,1.6-4.6c0.5-0.5,1-0.9,1.5-1.2c0.8-0.7,1.8-1.4,1.7-1.7
		c-0.7-1.9-2.2-6.7,0.3-9.2c2.3-2.2,5.9-2.2,8.1,0c0.4,0.4,0.4,1,0,1.4c-0.4,0.4-1,0.4-1.4,0c-1.5-1.5-3.8-1.5-5.3,0
		c-1.3,1.3-0.8,4.5,0.2,7.1c0.6,1.7-0.8,2.8-2.3,4c-0.4,0.4-0.9,0.7-1.4,1.2c-1.4,1.3-1.1,2.2-1.1,2.2c0.2,0.5,0,1.1-0.5,1.3
		C12.1,36.9,12,37,11.8,37z"/>
</g>
<g>
	<path class="st1" d="M20,6l1.2,3.7h3.9l-3.1,2.3l1.2,3.7L20,13.3l-3.1,2.3l1.2-3.7l-3.1-2.3h3.9L20,6 M25.1,9.7L25.1,9.7 M20,4
		c-0.9,0-1.6,0.6-1.9,1.4l-0.7,2.3h-2.4c-0.9,0-1.6,0.6-1.9,1.4c-0.3,0.8,0,1.7,0.7,2.2l1.9,1.4L15,15c-0.3,0.8,0,1.7,0.7,2.2
		c0.4,0.3,0.8,0.4,1.2,0.4c0.4,0,0.8-0.1,1.2-0.4l1.9-1.4l1.9,1.4c0.4,0.3,0.8,0.4,1.2,0.4c0.4,0,0.8-0.1,1.2-0.4
		c0.7-0.5,1-1.4,0.7-2.2l-0.7-2.3l1.9-1.4c0.5-0.4,0.9-1,0.9-1.6c0-1.1-0.9-2-2-2h0h-2.4l-0.7-2.3C21.6,4.6,20.9,4,20,4L20,4z"/>
</g>
<g>
	<path class="st2" d="M39,41H1c-0.6,0-1-0.4-1-1V1c0-0.6,0.4-1,1-1h38c0.6,0,1,0.4,1,1v39C40,40.6,39.6,41,39,41z M2,39h36V2H2V39z"
		/>
</g>
<g>
	<path class="st3" d="M35,18c-0.2,0-0.4-0.1-0.6-0.2l-7-5c-0.4-0.3-0.6-0.9-0.2-1.4c0.3-0.5,0.9-0.6,1.4-0.2l7,5
		c0.4,0.3,0.6,0.9,0.2,1.4C35.6,17.9,35.3,18,35,18z"/>
</g>
<g>
	<path class="st4" d="M31,20c-0.2,0-0.4-0.1-0.6-0.2l-4-3c-0.4-0.3-0.5-1-0.2-1.4c0.3-0.4,1-0.5,1.4-0.2l4,3c0.4,0.3,0.5,1,0.2,1.4
		C31.6,19.9,31.3,20,31,20z"/>
</g>
<g>
	<path class="st3" d="M5,18c-0.3,0-0.6-0.1-0.8-0.4c-0.3-0.4-0.2-1.1,0.2-1.4l7-5c0.4-0.3,1.1-0.2,1.4,0.2c0.3,0.4,0.2,1.1-0.2,1.4
		l-7,5C5.4,17.9,5.2,18,5,18z"/>
</g>
<g>
	<path class="st4" d="M9,20c-0.3,0-0.6-0.1-0.8-0.4c-0.3-0.4-0.2-1.1,0.2-1.4l4-3c0.4-0.3,1.1-0.2,1.4,0.2c0.3,0.4,0.2,1.1-0.2,1.4
		l-4,3C9.4,19.9,9.2,20,9,20z"/>
</g>
</svg>
