<?xml version="1.0" encoding="utf-8"?>
<!-- Generator: Adobe Illustrator 19.1.0, SVG Export Plug-In . SVG Version: 6.00 Build 0)  -->
<!DOCTYPE svg PUBLIC "-//W3C//DTD SVG 1.1//EN" "http://www.w3.org/Graphics/SVG/1.1/DTD/svg11.dtd">
<svg version="1.1" id="Layer_1" xmlns="http://www.w3.org/2000/svg" xmlns:xlink="http://www.w3.org/1999/xlink" x="0px" y="0px"
	 width="40px" height="39.9px" viewBox="0 0 40 39.9" style="enable-background:new 0 0 40 39.9;" xml:space="preserve">
<style type="text/css">
	.st0{fill:#00E0C5;}
	.st1{fill:#4931B1;}
	.st2{fill:#009BFF;}
	.st3{fill:#7AE076;}
	.st4{fill:#F6E251;}
</style>
<g>
	<path class="st0" d="M39,17h-5c-0.6,0-1-0.4-1-1s0.4-1,1-1h5c0.6,0,1,0.4,1,1S39.6,17,39,17z"/>
</g>
<g>
	<path class="st1" d="M32,9c-0.3,0-0.5-0.1-0.7-0.3c-0.4-0.4-0.4-1,0-1.4l4-4c0.4-0.4,1-0.4,1.4,0s0.4,1,0,1.4l-4,4
		C32.5,8.9,32.3,9,32,9z"/>
</g>
<g>
	<path class="st2" d="M36,29c-0.3,0-0.5-0.1-0.7-0.3l-4-4c-0.4-0.4-0.4-1,0-1.4s1-0.4,1.4,0l4,4c0.4,0.4,0.4,1,0,1.4
		C36.5,28.9,36.3,29,36,29z"/>
</g>
<g>
	<path class="st1" d="M6,17H1c-0.6,0-1-0.4-1-1s0.4-1,1-1h5c0.6,0,1,0.4,1,1S6.6,17,6,17z"/>
</g>
<g>
	<path class="st2" d="M8,9C7.7,9,7.5,8.9,7.3,8.7l-4-4c-0.4-0.4-0.4-1,0-1.4s1-0.4,1.4,0l4,4c0.4,0.4,0.4,1,0,1.4C8.5,8.9,8.3,9,8,9
		z"/>
</g>
<g>
	<path class="st3" d="M4,29c-0.3,0-0.5-0.1-0.7-0.3c-0.4-0.4-0.4-1,0-1.4l4-4c0.4-0.4,1-0.4,1.4,0s0.4,1,0,1.4l-4,4
		C4.5,28.9,4.3,29,4,29z"/>
</g>
<g>
	<path class="st4" d="M17.4,2C17.4,2,17.5,2,17.4,2c-0.1,5.6,9.3,11.7,9.3,11.7s2.8,1.2,2.8,5.3c0,4.5-3.9,4.7-3.9,4.7v2.1l1.3,1.2
		H28l4.3,10.8H7.3l4.3-10.8h1.1l1.2-1.2v-6.9h11.7v2.8c0,0,0.1,0,0.3,0c0.6,0,2.1-0.3,2.1-2.7c0-3.1-2-3.9-2-3.9
		c-3.6-1.1-6.4-1.5-8.5-1.5c-4.5,0-6.1,1.6-6.1,1.6c0,0,0,0-0.1,0c-0.6,0-0.2-1.8,2.6-7.7C16.3,2.4,17.2,2,17.4,2 M17.4,0
		C17.4,0,17.4,0,17.4,0C16,0,14.7,1,12,6.7c-3.4,7.1-3.4,8.4-2.6,9.6c0.4,0.6,1.1,1,1.9,1c0.1,0,0.2,0,0.3,0
		c0.5-0.1,0.8-0.2,1.1-0.5c0.2-0.2,1.6-1.1,4.8-1.1c2.1,0,4.6,0.4,7.4,1.2h-11c-1.1,0-2,0.9-2,2V25l0,0h-0.2c-0.8,0-1.6,0.5-1.9,1.3
		L5.5,37.1c-0.2,0.6-0.2,1.3,0.2,1.9c0.4,0.5,1,0.9,1.7,0.9h24.9c0.7,0,1.3-0.3,1.7-0.9c0.4-0.5,0.4-1.2,0.2-1.9l-4.3-10.8
		c-0.3-0.7-1-1.2-1.8-1.3c1.8-0.9,3.4-2.8,3.4-6c0-4.1-2.3-6.3-3.8-7.1c-3.3-2.2-8.3-6.7-8.2-9.9c0-0.5-0.2-1.1-0.6-1.5
		c-0.2-0.2-0.5-0.4-0.8-0.5C17.9,0,17.6,0,17.4,0L17.4,0z"/>
</g>
</svg>
