<svg xmlns="http://www.w3.org/2000/svg" viewBox="0 0 40.46 39.82"><defs><style>.b359e6a2-2632-4a98-a849-957ad4ed79b7{fill:#f6e251;}.e483b0eb-13c2-44fd-aedd-a178a0604057{fill:#7ae076;}.e0006055-56dd-4e9a-ba33-a57b9e99de34{fill:#4931b1;}.e2da83a8-cf94-4db0-af8f-e813089cecd0{fill:#009bff;}</style></defs><title>Asset 7</title><g id="bbcea02a-46b0-4269-bdaa-13466613719b" data-name="Layer 2"><g id="a1c203c1-0cb4-4744-b927-2922b0ada088" data-name="Layer 1"><path class="b359e6a2-2632-4a98-a849-957ad4ed79b7" d="M10.07,17.39a7.91,7.91,0,0,1-5.62-2.33,1,1,0,0,1,.83-1.7.86.86,0,0,0,.22-.06c-2-.7-5.18-2.42-5.5-6.25A1,1,0,0,1,1.64,6.2a2.66,2.66,0,0,0,.6.35A5.31,5.31,0,0,1,.82.62,1,1,0,0,1,1.61,0a1,1,0,0,1,.92.37h0S4,1.62,10.12,1.48h0A7.8,7.8,0,0,1,15.7,3.81a8,8,0,0,1-5.63,13.58Zm-3-2.79a6,6,0,0,0,3,.79,6,6,0,0,0,6-6,5.91,5.91,0,0,0-1.75-4.21,5.66,5.66,0,0,0-4.11-1.74h0c-4.14.1-6.46-.41-7.75-.93,0,2.27,2.75,3.77,2.88,3.85a1,1,0,0,1,0,1.73,4,4,0,0,1-2.8.57c1.35,2.4,4.65,3,4.82,3.05a1,1,0,0,1,.71.51,1,1,0,0,1,0,.86A4.09,4.09,0,0,1,7.11,14.6Zm3-12.12h0Z"/><path class="e483b0eb-13c2-44fd-aedd-a178a0604057" d="M16.69,23.83a.92.92,0,0,1-.36-.07l-3.64-1.38a1,1,0,0,1-.62-.73,1,1,0,0,1,.27-.91l9.08-9a1,1,0,0,1,.92-.27,1,1,0,0,1,.72.63l1.35,3.61a1,1,0,0,1-.23,1.05l-6.79,6.78A1,1,0,0,1,16.69,23.83Zm-1.84-2.77,1.59.6,5.87-5.87-.58-1.55Z"/><path class="e0006055-56dd-4e9a-ba33-a57b9e99de34" d="M38.42,39.82a2.73,2.73,0,0,1-1.66-.6L21.13,27a1,1,0,0,1-.38-.73,1,1,0,0,1,.29-.77l5.12-5.11a1,1,0,0,1,.77-.29.94.94,0,0,1,.72.38L39.86,36.12a2.35,2.35,0,0,1,0,3.12A2,2,0,0,1,38.42,39.82ZM23.25,26.13,38,37.64a.66.66,0,0,0,.49.17.92.92,0,0,0-.2-.46L26.77,22.61Z"/><path class="e2da83a8-cf94-4db0-af8f-e813089cecd0" d="M19.07,25.69a1,1,0,0,1-.7-.3,1,1,0,0,1,0-1.41l6.25-6.26A1,1,0,1,1,26,19.14l-6.25,6.25A1,1,0,0,1,19.07,25.69Z"/></g></g></svg>