<?xml version="1.0" encoding="utf-8"?>
<!-- Generator: Adobe Illustrator 19.1.0, SVG Export Plug-In . SVG Version: 6.00 Build 0)  -->
<!DOCTYPE svg PUBLIC "-//W3C//DTD SVG 1.1//EN" "http://www.w3.org/Graphics/SVG/1.1/DTD/svg11.dtd">
<svg version="1.1" id="Layer_1" xmlns="http://www.w3.org/2000/svg" xmlns:xlink="http://www.w3.org/1999/xlink" x="0px" y="0px"
	 width="40px" height="39.9px" viewBox="0 0 40 39.9" style="enable-background:new 0 0 40 39.9;" xml:space="preserve">
<style type="text/css">
	.st0{fill:#009BFF;}
	.st1{fill:#00E0C5;}
	.st2{fill:#7AE076;}
	.st3{fill:#F6E251;}
	.st4{fill:none;stroke:#4931B1;stroke-width:0;stroke-linecap:round;stroke-linejoin:round;}
	.st5{fill:#4931B1;}
</style>
<path class="st0" d="M6.4,29.5c-0.3,0-0.7-0.2-0.8-0.5C3.9,26.3,3,23.2,3,20c0-0.3,0-0.5,0-0.8C3.4,9.9,11.3,2.6,20.8,3L21,3
	c0.6,0,1,0.5,0.9,1.1c0,0.6-0.5,1-1.1,0.9l-0.2,0c-0.2,0-0.5,0-0.7,0C12,5,5.4,11.3,5,19.3c0,0.2,0,0.5,0,0.7c0,2.8,0.8,5.6,2.3,8
	c0.3,0.5,0.2,1.1-0.3,1.4C6.8,29.5,6.6,29.5,6.4,29.5z M34,28.8c-0.2,0-0.3,0-0.5-0.1c-0.5-0.3-0.7-0.9-0.4-1.4
	c1.1-2,1.8-4.3,1.9-6.6c0-0.2,0-0.5,0-0.7c0-2.8-0.8-5.6-2.3-8c-0.3-0.5-0.2-1.1,0.3-1.4c0.5-0.3,1.1-0.2,1.4,0.3
	c1.7,2.7,2.6,5.8,2.6,9c0,0.3,0,0.5,0,0.8c-0.1,2.7-0.8,5.2-2.1,7.5C34.7,28.6,34.4,28.8,34,28.8z"/>
<path class="st1" d="M10,29.3c-0.3,0-0.6-0.1-0.8-0.4C7.2,26.4,6,23.3,6,20c0-3,0.9-5.8,2.7-8.2C11.3,8.1,15.4,6,19.9,6c0,0,0,0,0,0
	c0.5,0,1,0.4,1,1c0,0.6-0.4,1-1,1c-3.8,0-7.3,1.8-9.6,4.9C8.8,15,8,17.4,8,20c0,2.8,1,5.5,2.8,7.7c0.4,0.4,0.3,1.1-0.1,1.4
	C10.5,29.2,10.2,29.3,10,29.3z M30.5,28.7c-0.2,0-0.4-0.1-0.6-0.2c-0.4-0.3-0.5-1-0.2-1.4C31.2,25,32,22.6,32,20
	c0-2.8-1-5.5-2.8-7.7c-0.4-0.4-0.3-1.1,0.1-1.4s1.1-0.3,1.4,0.1c2.1,2.5,3.2,5.7,3.2,9c0,3-0.9,5.8-2.7,8.2
	C31.1,28.5,30.8,28.7,30.5,28.7z"/>
<path class="st2" d="M29.6,23.9c-0.1,0-0.2,0-0.3,0c-0.5-0.2-0.8-0.7-0.7-1.2c0.3-0.8,0.4-1.7,0.4-2.6c0-2.6-1.1-5.1-3.1-6.8
	c-0.4-0.4-0.5-1-0.1-1.4c0.4-0.4,1-0.5,1.4-0.1c2.4,2.1,3.8,5.1,3.8,8.3c0,1.1-0.2,2.2-0.5,3.2C30.4,23.6,30,23.9,29.6,23.9z
	 M10.4,23.9c-0.4,0-0.8-0.3-1-0.7C9.2,22.2,9,21.1,9,20c0-6.1,4.9-11,11-11c0.2,0,0.5,0,0.7,0c0.6,0,1,0.5,0.9,1.1
	c0,0.6-0.5,1-1.1,0.9c-0.2,0-0.4,0-0.6,0c-5,0-9,4-9,9c0,0.9,0.1,1.8,0.4,2.6c0.2,0.5-0.1,1.1-0.7,1.2
	C10.6,23.9,10.5,23.9,10.4,23.9z"/>
<path class="st3" d="M32,39.9H8c-0.6,0-1-0.4-1-1s0.4-1,1-1h23.2c0-0.7-0.3-1.8-1.9-3.2c-0.7-0.7-1.5-1.2-2.1-1.8
	c-2.1-1.7-4-3.2-3.2-5.3c0.7-1.9,2.9-8.2,0.2-10.9c-2.4-2.3-6.2-2.3-8.5,0c-0.4,0.4-1,0.4-1.4,0c-0.4-0.4-0.4-1,0-1.4
	c3.1-3.1,8.2-3.2,11.3-0.1c3.5,3.4,1.3,10.3,0.3,13c-0.3,0.7,0.7,1.6,2.6,3.1c0.7,0.5,1.4,1.1,2.2,1.8c3.6,3.2,2.3,6,2.2,6.2
	C32.7,39.7,32.4,39.9,32,39.9z"/>
<path class="st3" d="M8,39.9c-0.4,0-0.7-0.2-0.9-0.5c-0.1-0.1-1.4-2.9,2.2-6.1c0.8-0.7,1.5-1.3,2.2-1.8c1.8-1.5,2.9-2.4,2.6-3.1
	c-1.1-2.8-3.2-9.6,0.3-13c1.5-1.5,3.5-2.3,5.6-2.3c0,0,0,0,0,0c2.1,0,4.1,0.9,5.6,2.4c0.4,0.4,0.4,1,0,1.4c-0.4,0.4-1,0.4-1.4,0
	c-1.1-1.1-2.6-1.8-4.2-1.8c-1.6,0-3.1,0.6-4.3,1.7c-2.7,2.7-0.5,9,0.2,10.9c0.8,2.1-1,3.6-3.2,5.4c-0.6,0.5-1.4,1.1-2.1,1.7
	c-2.4,2.2-1.8,3.7-1.8,3.8c0.2,0.5,0,1.1-0.5,1.3C8.3,39.8,8.1,39.9,8,39.9z"/>
<g>
	<line class="st4" x1="39.3" y1="14.9" x2="39.4" y2="14.9"/>
	<path class="st5" d="M39.4,15L39.4,15C39.3,14.9,39.3,14.9,39.4,15c-0.2-0.4-0.5-0.7-1-0.7c-0.6,0-1,0.4-1,1c0,0.1,0,0.1,0,0.2l0,0
		c0.4,1.5,0.6,3,0.6,4.5c0,4.5-1.7,8.8-4.7,12.2c-0.4,0.4-0.3,1,0.1,1.4c0.2,0.2,0.4,0.3,0.7,0.3c0.3,0,0.5-0.1,0.7-0.3
		C38.1,29.8,40,25,40,20C40,18.3,39.8,16.6,39.4,15z"/>
	<path class="st5" d="M25.3,0.7C21.9-0.2,18.4-0.2,15,0.6C6.2,2.9,0,10.9,0,20c0,1.7,0.2,3.4,0.6,5c0.1,0.5,0.5,0.7,1,0.7
		c0.1,0,0.2,0,0.3,0c0.5-0.1,0.9-0.7,0.7-1.2C2.2,23,2,21.5,2,20C2,11.8,7.5,4.6,15.5,2.6c3.1-0.8,6.3-0.8,9.3,0.1
		c0.5,0.1,1.1-0.2,1.2-0.7C26.1,1.4,25.8,0.9,25.3,0.7z"/>
</g>
</svg>
