<svg id="ae895564-22b5-4d79-bdb2-39794ea44dc8" data-name="Layer 1" xmlns="http://www.w3.org/2000/svg" width="40" height="40" viewBox="0 0 40 40">
  <path d="M16,40a.98678.98678,0,0,1-.38184-.07617.99986.99986,0,0,1-.60937-1.05567L16.85742,25H8a.99979.99979,0,0,1-.98535-1.1709l4-23A.99972.99972,0,0,1,12,0H30a.99985.99985,0,0,1,.90527,1.42578L23.57617,17H32a1.00046,1.00046,0,0,1,.7959,1.60645l-16,21A1.00208,1.00208,0,0,1,16,40ZM9.18848,23H18a1,1,0,0,1,.99121,1.13184L17.48926,35.39453,29.98047,19H22a.99985.99985,0,0,1-.90527-1.42578L28.42383,2h-15.583Z" style="fill: #f6e251"/>
  <path d="M39,40a.99676.99676,0,0,1-.707-.293l-8-8A.99989.99989,0,0,1,31.707,30.293l8,8A1,1,0,0,1,39,40Z" style="fill: #009bff"/>
  <path d="M6,36a1,1,0,0,1-.707-1.707l6-6A.99989.99989,0,0,1,12.707,29.707l-6,6A.99676.99676,0,0,1,6,36Z" style="fill: #00e0c5"/>
  <path d="M10,11a.99676.99676,0,0,1-.707-.293l-6-6A.99989.99989,0,0,1,4.707,3.293l6,6A1,1,0,0,1,10,11Z" style="fill: #f6e251"/>
  <path d="M32,11a1,1,0,0,1-.707-1.707l4-4A.99989.99989,0,1,1,36.707,6.707l-4,4A.99676.99676,0,0,1,32,11Z" style="fill: #7ae076"/>
  <path d="M4,19H1a1,1,0,0,1,0-2H4a1,1,0,0,1,0,2Z" style="fill: #7ae076"/>
  <path d="M39,19H36a1,1,0,0,1,0-2h3a1,1,0,0,1,0,2Z" style="fill: #4931b1"/>
</svg>
