<svg xmlns="http://www.w3.org/2000/svg" width="58.923" height="34.373" viewBox="0 0 58.923 34.373"><path fill="#D03033" d="M10.326 0l17.187 11.457h31.41v-11.457z"/><path fill="#fff" d="M27.513 11.457l3.438 2.293h27.972v-2.293zM30.951 20.623l-3.438 2.293h31.41v-2.293z"/><path fill="#1F189B" d="M27.513 22.916l-17.187 11.457h48.597v-11.457z"/><path d="M0 11.457h6.857l-6.857-4.573zM0 11.457v11.459h6.857l8.594-5.73-8.594-5.729zM0 22.916v4.572l6.857-4.572z"/><path fill="#F2B126" d="M0 6.884l15.451 10.302-15.451 10.302v2.754l19.582-13.056-19.582-13.055z"/><path fill="#32784C" d="M0 0v4.131l19.582 13.055-19.582 13.056v4.131h6.196l20.623-13.75h32.104v-6.873h-32.104l-20.623-13.75z"/></svg>