<svg xmlns="http://www.w3.org/2000/svg" xmlns:xlink="http://www.w3.org/1999/xlink" width="26" height="20.8" viewBox="0 0 26 20.8"><defs><path id="a" d="M0 0h26v20.8h-26z"/></defs><clipPath id="b"><use xlink:href="#a" overflow="visible"/></clipPath><path clip-path="url(#b)" fill="#fff" d="M23.338 5.18c.011.225.016.452.016.679 0 6.938-5.365 14.94-15.176 14.94-3.014.001-5.818-.868-8.178-2.359.417.049.842.074 1.272.074 2.499 0 4.799-.841 6.625-2.248-2.334-.042-4.304-1.562-4.983-3.647.326.063.66.095 1.004.095.486 0 .957-.064 1.405-.185-2.44-.482-4.279-2.604-4.279-5.149v-.066c.72.394 1.542.63 2.417.657-1.432-.941-2.373-2.549-2.373-4.37 0-.963.263-1.865.722-2.64 2.631 3.177 6.561 5.267 10.994 5.486-.091-.384-.138-.785-.138-1.197.001-2.899 2.39-5.25 5.334-5.25 1.535 0 2.921.637 3.895 1.658 1.215-.236 2.356-.673 3.387-1.274-.398 1.226-1.244 2.255-2.345 2.905 1.079-.127 2.106-.41 3.063-.827-.716 1.053-1.62 1.978-2.662 2.718"/></svg>